<svg width="535" height="521" fill="none" xmlns="http://www.w3.org/2000/svg"><mask id="mask0" maskUnits="userSpaceOnUse" x="0" y="53" width="533" height="468"><path fill-rule="evenodd" clip-rule="evenodd" d="M0 53.948h532.615v466.087H.001V53.948z" fill="#fff"/></mask><g mask="url(#mask0)"><path fill-rule="evenodd" clip-rule="evenodd" d="M499.715 308.198c-1.65 2.65-3.296 5.255-5.051 7.85-15.35 23.055-34.4 45.2-55.495 65.555-.954.945-1.954 1.9-2.949 2.845a365.886 365.886 0 01-9.206 8.45 361.658 361.658 0 01-16.45 14.2c-2.95 2.5-5.995 4.955-9 7.35-34.895 27.605-72.194 51.755-108.949 69.95-11.395 5.705-22.796 10.8-34.046 15.2-58.705 23.255-113.35 28.705-151.049 5.65-12.005-7.3-22.255-17.5-30.405-30.945-1.3-2.155-2.6-4.305-3.9-6.45-12.046-20.155-23.55-40.4-33.65-60.755-2.4-4.75-4.645-9.445-6.846-14.2-36.65-78.75-50.605-158.45 1.346-236.85 20.2-30.495 53.355-54.245 93.15-71.05 11.355-4.845 23.199-9.05 35.504-12.7 6.051-1.9 12.146-3.55 18.396-5.045 7.854-2 15.849-3.75 23.949-5.255a406.66 406.66 0 0118.65-3.15c2.6-.345 5.2-.695 7.8-1.05 18.45-2.345 37.15-3.65 55.756-3.795 2.445-.055 4.894-.055 7.299-.055 11.25.055 22.396.5 33.396 1.405 2.95.2 5.899.45 8.849.795 56.15 5.455 107.651 21.55 142.651 48.255 7.65 5.85 14.504 12.145 20.449 19a71.05 71.05 0 013.15 3.795c.35.4.655.8 1 1.205 7.25 9.095 13.051 18.5 17.406 28.1 22.25 48.45 9.245 101.895-21.755 151.695z" fill="#FDE6D6"/></g><path fill-rule="evenodd" clip-rule="evenodd" d="M386.54 454.638c-13.49 14.14-23.095 34.36-8.585 46.34 16.205 13.375 49.63 10.27 66.91-14.965 11.045-16.12 16.89-41.605 4.655-55.9-10.475-12.24-46.43 7.175-62.98 24.525z" fill="#E8E5EA"/><path fill-rule="evenodd" clip-rule="evenodd" d="M190.366 450.952c-3.35.145-6.75.25-10.05.25-.35 0-.6.295-.6.65 0 .295.25.6.6.6 3.35 0 6.7-.105 10.1-.25.35 0 .6-.305.6-.65-.05-.301-.35-.6-.65-.6zm-20.05.099c-3.4-.099-6.8-.3-10-.5-.45-.05-.65.2-.7.546 0 .355.25.654.6.704 3.25.2 6.65.401 10.05.5.35 0 .65-.25.65-.604 0-.345-.25-.646-.6-.646zm40.05-1.55c-3.35.346-6.7.65-10 .9-.35 0-.6.296-.6.65.05.35.3.6.65.6h.05c3.3-.25 6.65-.554 10-.9.35-.054.6-.35.6-.704-.05-.345-.35-.6-.7-.546zm-60.05.05c-3.3-.354-6.65-.849-9.9-1.405a.672.672 0 00-.75.505c-.05.345.2.65.55.701 3.25.6 6.6 1.049 9.95 1.449h.1c.3 0 .55-.199.6-.555.05-.345-.2-.649-.55-.695zm79.95-2.699c-3.4.495-6.7 1-9.95 1.449-.35.046-.6.35-.55.695.05.305.35.555.65.555h.05c3.25-.449 6.6-.954 10-1.5.3-.05.55-.349.5-.704-.05-.346-.35-.546-.7-.495zm-99.65-.701c-3.3-.75-6.55-1.6-9.7-2.5-.35-.1-.7.051-.8.4-.1.345.1.7.45.796 3.05.85 6.15 1.704 9.3 2.454.15.046.3.046.45.1h.15c.1 0 .2-.054.3-.1l.05-.05c.15-.049.2-.2.25-.355a.706.706 0 00-.45-.745zm119.35-3.049c-3.25.695-6.6 1.399-9.75 2h-.1c-.35.049-.55.345-.5.7.05.295.35.495.65.495h.1c2.25-.4 4.55-.85 6.85-1.345 1-.201 2-.4 3-.65.35-.051.55-.401.5-.75-.1-.301-.4-.551-.75-.45zm19.5-4.755c-3.15.849-6.4 1.699-9.7 2.5-.35.104-.55.404-.45.754.05.295.3.496.6.496.05 0 .1 0 .15-.046 3.3-.8 6.6-1.65 9.75-2.454.3-.096.5-.446.45-.801-.1-.295-.45-.495-.8-.449zm-158.05 2.099c-1.1-.4-2.15-.8-3.25-1.25-2.05-.8-4-1.695-5.95-2.595-.3-.15-.7 0-.85.295-.15.305 0 .705.3.85 2.1 1.005 4.3 1.9 6.5 2.805.9.4 1.85.745 2.8 1.1h.25c.25 0 .5-.155.6-.4.1-.3-.05-.65-.4-.805zm177.3-7.7c-.65.201-1.3.451-2 .65-2.45.755-5 1.556-7.55 2.301-.35.105-.55.4-.45.755.1.299.35.444.6.444h.2c2.5-.745 5.05-1.495 7.45-2.25.75-.25 1.45-.449 2.15-.694.3-.1.5-.451.4-.806-.1-.294-.45-.495-.8-.4zm-195.4-.745l-.35-.25a110.43 110.43 0 01-8.1-5.099c-.25-.2-.65-.1-.85.2-.2.245-.1.649.15.85 2.6 1.745 5.35 3.5 8.15 5.15l.4.25c.1.045.2.045.3.045.25 0 .45-.095.55-.295.2-.305.05-.705-.25-.851zm214.4-5.705c-3.15 1.155-6.35 2.255-9.45 3.35a.59.59 0 00-.4.755c.1.295.3.446.6.446.05 0 .1 0 .2-.046 3.15-1.05 6.3-2.204 9.45-3.35.35-.104.5-.45.4-.8-.15-.355-.55-.5-.8-.355zm19.5-6.994c-.15-.35-.5-.505-.8-.35-3.05 1.25-6.2 2.545-9.35 3.75-.3.15-.45.495-.35.85.1.245.35.4.6.4.05 0 .15-.05.25-.05 3.15-1.25 6.3-2.55 9.3-3.8.35-.15.5-.505.35-.8zm-250.35 1.395a88.936 88.936 0 01-3.35-2.75c-1.45-1.25-2.8-2.546-4.15-3.796a.634.634 0 00-.9 0 .628.628 0 000 .895c1.6 1.505 3.25 3.005 5 4.455.85.745 1.7 1.5 2.6 2.196.1.104.25.155.4.155.2 0 .35-.101.5-.25.2-.25.15-.651-.1-.905zm268.75-9.6a.614.614 0 00-.85-.295c-2.9 1.345-5.85 2.75-9.15 4.199-.3.101-.45.5-.3.801.1.25.35.4.55.4.1 0 .2-.051.25-.105 3.3-1.45 6.3-2.795 9.2-4.2.3-.146.45-.496.3-.8zm-283.15-4.201a101 101 0 01-6.2-7.794c-.2-.305-.6-.351-.9-.15a.623.623 0 00-.1.849c1.75 2.5 3.7 4.95 5.7 7.296.2.204.35.45.55.649.1.106.3.201.45.201a.8.8 0 00.45-.146c.2-.199.25-.454.15-.704 0-.096-.05-.15-.1-.201zm301.1-4.845c-.15-.3-.55-.4-.85-.25-2.85 1.546-5.9 3.1-8.9 4.6-.3.15-.4.451-.3.696-.05.049 0 .104 0 .154.1.2.35.351.55.351.1 0 .2-.056.3-.101.25-.154.55-.25.8-.404 2.8-1.346 5.5-2.796 8.15-4.196.3-.155.4-.554.25-.85zm17.5-9.849c-.15-.306-.55-.401-.85-.255-.55.304-1.05.655-1.6.954-2.3 1.4-4.65 2.745-7.1 4.1-.3.145-.4.546-.2.851.1.199.3.294.55.294.1 0 .2 0 .3-.044 2.95-1.701 5.9-3.4 8.7-5.051.05-.05.1-.104.15-.15.2-.199.2-.449.05-.699zm-330.2-1.505a87.321 87.321 0 01-4.6-8.845c-.15-.301-.55-.451-.85-.301-.3.146-.45.5-.3.85 1.4 3 2.95 6.05 4.65 8.951.1.199.3.299.55.299.1 0 .2-.049.3-.1.3-.15.4-.55.25-.854zm347.25-9.095c0-.05-.05-.105-.05-.15-.2-.3-.6-.355-.85-.201-.2.101-.35.246-.55.351-1.4.945-2.9 1.95-4.35 2.845-1.15.8-2.35 1.554-3.5 2.304-.3.146-.4.551-.2.851.1.2.3.3.5.3.1 0 .25-.05.35-.1 1.75-1.105 3.45-2.2 5.15-3.355 1.1-.696 2.2-1.395 3.3-2.145.2-.155.3-.45.2-.7zm16.3-11.801c-.2-.3-.6-.355-.85-.155-2.65 2.005-5.4 4.005-8.1 5.955-.3.2-.35.55-.15.85.15.15.3.245.5.245.15 0 .25 0 .4-.095 2.7-1.955 5.45-3.95 8.1-5.955.3-.2.35-.6.1-.845zm-374.85-6.75a.64.64 0 00-.8-.449c-.3.099-.5.449-.45.745.9 3.304 1.9 6.554 3 9.654.1.3.3.45.6.45.05 0 .1 0 .2-.055.3-.095.5-.45.35-.795-1.1-3.1-2.05-6.305-2.9-9.55zm390.5-5.954a.692.692 0 00-.9-.045c-2.45 2.1-5 4.245-7.7 6.449a.626.626 0 00-.1.851c.15.149.3.245.5.245.15 0 .25-.045.4-.15 2.7-2.145 5.3-4.345 7.7-6.446.3-.254.3-.599.1-.904zm-394.05-13.75c0-.296-.3-.601-.65-.546-.35.051-.6.345-.55.7.35 3.395.8 6.745 1.35 10 .05.295.35.495.65.495h.1c.35-.045.55-.345.5-.695-.55-3.255-1.05-6.55-1.4-9.954zm408.75.105a.625.625 0 00-.9 0c-2.3 2.299-4.75 4.65-7.2 6.949-.25.201-.3.6-.05.85.1.15.3.201.45.201.15 0 .3-.051.45-.155 2.45-2.301 4.9-4.646 7.25-6.995.25-.25.25-.651 0-.85zm13.55-14.855c-.25-.25-.65-.201-.9.054-2.05 2.5-4.3 5.051-6.6 7.551-.25.25-.2.65.05.895.1.105.25.154.4.154.2 0 .35-.105.45-.2 2.35-2.55 4.6-5.104 6.7-7.604.2-.25.15-.65-.1-.85zm-423.05-.745c0-1.451 0-2.951.05-4.456 0-.345-.25-.65-.6-.65s-.65.255-.65.601c-.05 1.5-.05 3.005-.05 4.505 0 1.899.05 3.75.1 5.599 0 .3.3.6.6.6h.05c.35-.055.6-.3.6-.655-.05-1.845-.1-3.695-.1-5.544zm435.15-15.25c-.3-.201-.65-.15-.85.144a219.766 219.766 0 01-5.85 8.101.637.637 0 00.1.904c.1.05.25.101.4.101.15 0 .35-.051.5-.25 2-2.65 4-5.4 5.85-8.15.2-.306.15-.706-.15-.85zm-434-9.855c-.4-.095-.65.155-.7.504-.45 3.401-.8 6.75-1.1 10.051 0 .35.25.65.6.65h.05c.3 0 .6-.25.6-.555.3-3.295.65-6.646 1.1-9.945.05-.35-.2-.705-.55-.705zm444.25-7.445c-.3-.1-.65 0-.85.3-1.45 2.85-3.1 5.8-4.85 8.7-.2.295-.1.699.2.9.1.045.2.045.3.045.25 0 .45-.095.55-.295 1.8-2.951 3.45-5.9 4.95-8.8.15-.305 0-.705-.3-.85zm-440.65-12.355c-.35-.046-.65.155-.75.504-.7 3.3-1.4 6.595-2 9.85-.05.35.2.65.5.75h.15c.3 0 .55-.199.6-.5.6-3.25 1.25-6.55 2-9.85.05-.354-.15-.65-.5-.754zm448.55-6.095c-.35-.101-.7.045-.8.399-1.05 3.051-2.3 6.201-3.65 9.301-.15.345 0 .699.35.849.05 0 .15.051.25.051.2 0 .45-.15.55-.4 1.35-3.151 2.6-6.301 3.65-9.401.15-.304-.05-.65-.35-.799zm-443.35-13.301c-.3-.099-.65.1-.75.445-1 3.206-1.95 6.451-2.8 9.655-.05.345.15.701.45.745.05.051.1.051.2.051.25 0 .5-.196.6-.451.8-3.195 1.75-6.449 2.75-9.644a.64.64 0 00-.45-.801zm448.65-6.05c-.35-.099-.65.151-.75.446-.7 3.205-1.55 6.45-2.45 9.755-.05.299.1.645.45.75.05 0 .1.049.15.049.3 0 .55-.199.6-.5.9-3.25 1.75-6.549 2.5-9.75.05-.349-.15-.704-.5-.75zm-442.1-12.949c-.35-.105-.7.045-.8.35-1.2 3.15-2.35 6.349-3.4 9.495-.15.304.05.649.35.804h.2c.3 0 .5-.155.6-.399 1.1-3.15 2.25-6.351 3.4-9.45.1-.306-.05-.705-.35-.8zm445.7-6.85c-.3-.05-.65.2-.7.549-.45 3.301-1 6.596-1.6 9.896-.05.354.15.649.5.755h.1c.3 0 .55-.2.65-.505.6-3.351 1.15-6.7 1.6-9.945 0-.35-.2-.705-.55-.75zm-438.1-11.75c-.3-.15-.65 0-.8.345-1.35 3.055-2.7 6.155-3.95 9.255-.1.295.05.699.35.8.1.05.15.05.25.05.25 0 .45-.151.55-.401 1.25-3.054 2.6-6.154 3.95-9.199.15-.35 0-.705-.35-.85zm439.85-8.251c-.3.045-.6.245-.65.601-.15 3.349-.35 6.699-.65 10-.05.349.2.649.55.694h.05c.3 0 .6-.245.6-.6.35-3.295.55-6.645.7-10.049.05-.295-.25-.601-.6-.646zm-431.2-9.899c-.3-.15-.7-.055-.85.25-1.5 3-3 6.05-4.4 9.045-.15.354 0 .705.3.85.1.054.15.054.25.054.25 0 .45-.099.55-.349 1.45-3.005 2.95-6.05 4.45-9 .15-.35 0-.705-.3-.85zm431.8-9.556c0-.345-.3-.595-.65-.595-.35 0-.6.3-.6.65.15 3.3.25 6.65.25 10 0 .35.3.65.6.65.35 0 .65-.3.65-.65 0-3.35-.1-6.75-.25-10.055zm-422.3-8.195c-.3-.15-.7-.05-.85.25-1.7 2.945-3.3 5.95-4.85 8.85-.15.3-.05.65.25.8.1.05.2.1.3.1.2 0 .45-.1.55-.35 1.55-2.85 3.15-5.85 4.85-8.8.15-.3.05-.65-.25-.85zm420.4-11.9c-.05-.349-.35-.599-.7-.5-.35.05-.55.35-.5.696.45 3.304.85 6.654 1.15 9.955.05.349.3.549.65.549h.05c.35 0 .6-.299.55-.65-.3-3.35-.7-6.7-1.2-10.05zm-410.15-5.349c-.25-.2-.65-.1-.85.199-1.75 2.846-3.5 5.701-5.2 8.601-.2.3-.1.649.2.85.1.049.2.1.3.1.25 0 .45-.1.55-.301 1.7-2.899 3.45-5.75 5.2-8.599.2-.305.1-.651-.2-.85zm408.45-4.95h-.05c-.55-3.15-1.3-6.3-2.05-9.505-.05-.346-.4-.545-.75-.445-.3.05-.55.4-.45.75.75 3.05 1.4 6.099 2 9.15.05.199.1.445.15.65.05.299.3.5.6.5h.1c.35-.1.55-.4.5-.75 0-.1-.05-.25-.05-.35zm-397.2-12.201a.589.589 0 00-.85.151l-.25.349c-1.85 2.75-3.75 5.55-5.55 8.345-.2.306-.15.705.15.905.1.05.25.1.35.1.2 0 .4-.1.5-.3 1.85-2.8 3.7-5.604 5.6-8.349l.25-.351c.15-.25.1-.654-.2-.85zm391.8-9.3c-.75-2.5-1.55-4.95-2.35-7.35-.1-.35-.5-.5-.8-.4-.35.15-.5.5-.4.8.95 2.75 1.85 5.55 2.7 8.4.1.4.25.75.35 1.15.1.3.35.45.6.45h.2c.3-.1.5-.45.4-.8-.2-.75-.45-1.505-.7-2.25zm-380.25-7.15c-.3-.2-.7-.149-.9.151-1.9 2.7-3.85 5.399-5.8 8.2-.2.25-.1.649.15.849.15.1.25.1.4.1.15 0 .35-.05.5-.255 1.9-2.745 3.85-5.495 5.8-8.194.2-.301.1-.65-.15-.851zm11.9-16.2c-.3-.199-.65-.149-.9.101-2 2.645-4 5.349-6 8.099-.2.25-.1.651.15.851.1.1.25.149.35.149.2 0 .4-.104.55-.299 1.95-2.701 3.95-5.401 5.95-8.05.2-.25.15-.65-.1-.851zm362.45 6.551c-.3-.75-.65-1.551-1-2.351-.15-.399-.35-.85-.55-1.299-.75-1.85-1.6-3.75-2.45-5.6a.643.643 0 00-.85-.301c-.3.151-.45.5-.3.801.6 1.295 1.2 2.6 1.75 3.899.4.851.75 1.701 1.05 2.5.4.851.75 1.651 1.05 2.5l.15.3c.1.25.3.4.55.4.1 0 .15 0 .25-.049.25-.101.45-.351.4-.651 0-.05 0-.104-.05-.149zm-350.1-22.455c-.3-.195-.65-.146-.9.104-2.05 2.5-4 5.101-6 7.65-.05.101-.15.15-.2.25-.25.301-.2.701.1.9.1.1.25.151.35.151.15 0 .3-.051.4-.151l.1-.099c2.1-2.701 4.15-5.301 6.25-7.901.2-.25.15-.65-.1-.904zm341.7 4.154c-.65-1.199-1.25-2.349-1.9-3.5-.95-1.799-1.95-3.549-3-5.299-.15-.3-.55-.4-.85-.25-.3.2-.4.549-.2.85 1.05 1.8 2.05 3.65 3.1 5.55.55 1.05 1.15 2.145 1.7 3.25.15.2.35.3.55.3.1 0 .2 0 .3-.055.3-.145.45-.545.3-.846zm-328.85-19.6c-.3-.2-.65-.15-.9.1-2.15 2.5-4.35 5.05-6.5 7.65-.2.3-.2.7.1.9.1.1.25.15.4.15.15 0 .35-.1.45-.25 2.15-2.6 4.35-5.15 6.5-7.65.2-.25.2-.65-.05-.9zm318.65 2.2c-1.8-2.8-3.7-5.55-5.65-8.3-.2-.3-.6-.35-.9-.15-.25.2-.35.6-.15.9 1.95 2.7 3.9 5.45 5.7 8.25.1.15.3.25.5.25.1 0 .25 0 .35-.1.3-.15.35-.55.15-.85zm-305.25-17.15c-.25-.2-.65-.2-.85.05-2.3 2.4-4.55 4.9-6.8 7.4-.25.3-.2.65.05.9.1.1.25.15.4.15.15 0 .35-.05.45-.2 2.25-2.5 4.55-5 6.8-7.4.25-.25.2-.65-.05-.9zm293.5.85c-2.1-2.65-4.3-5.25-6.5-7.75-.2-.25-.6-.25-.85-.05-.3.25-.3.65-.05.9 2.15 2.45 4.35 5.05 6.4 7.65.15.15.3.25.5.25.15 0 .25-.05.4-.15.25-.2.3-.6.1-.85zm-279.4-15.15a.575.575 0 00-.85 0c-2.35 2.25-4.75 4.65-7.15 7.095-.25.255-.25.656 0 .856.1.15.25.2.45.2.15 0 .3-.05.45-.2 2.35-2.4 4.75-4.8 7.1-7.05.25-.25.25-.65 0-.9zm266.1.05c-2.35-2.4-4.75-4.8-7.2-7.05a.634.634 0 00-.9 0c-.2.25-.2.65.05.9 2.45 2.25 4.85 4.65 7.15 7 .1.1.25.2.45.2.15 0 .3-.05.4-.2.25-.25.25-.65.05-.85zm-251.2-13.55c-.25-.25-.65-.3-.9-.05-1.8 1.55-3.6 3.1-5.35 4.7-.45.35-.85.75-1.25 1.15-.3.25-.65.5-.95.8a.687.687 0 00-.05.9c.15.1.3.2.5.2.15 0 .3-.05.4-.15l1.65-1.5 1.8-1.65c1.35-1.205 2.7-2.35 4.05-3.5.25-.25.3-.65.1-.9zm236.5-.2c-2.55-2.2-5.2-4.3-7.8-6.35-.3-.2-.7-.15-.9.1-.2.3-.15.7.1.895 2.65 2.006 5.25 4.156 7.8 6.306.1.1.25.15.4.15.15 0 .35-.1.45-.25.25-.25.2-.65-.05-.85zm-220.8-12.3c-.2-.25-.6-.35-.85-.1-2.65 1.9-5.3 4-8 6.1-.25.25-.3.6-.1.9.15.15.3.25.5.25.15 0 .25-.05.4-.15 2.65-2.15 5.3-4.2 7.95-6.1.25-.205.3-.6.1-.9zm204.85 0c-2.75-1.95-5.55-3.8-8.4-5.6a.649.649 0 00-.85.2c-.2.3-.1.7.2.85 2.8 1.8 5.6 3.65 8.35 5.55.1.1.25.1.35.1.2 0 .4-.05.5-.25.2-.3.15-.65-.15-.85zm-188.15-11.2c-.2-.25-.6-.35-.85-.2-2.85 1.75-5.7 3.55-8.5 5.45-.3.2-.35.6-.15.9.1.15.3.25.5.25.15 0 .25-.05.35-.1 2.8-1.905 5.6-3.7 8.45-5.4.3-.2.35-.6.2-.9zm171.15.45c-2.95-1.65-5.95-3.3-8.9-4.805-.3-.145-.7 0-.85.305-.15.3 0 .65.3.846 2.95 1.505 5.9 3.055 8.8 4.704.1.1.2.1.3.1.25 0 .45-.1.55-.3.2-.3.1-.7-.2-.85zm-153.5-9.95c-.15-.35-.5-.45-.85-.3-2.95 1.4-6 2.945-8.95 4.55-.3.2-.4.55-.25.85.1.25.35.35.55.35.1 0 .2-.05.3-.1 2.95-1.6 5.95-3.1 8.9-4.55.3-.15.45-.5.3-.8zm135.5.8c-3.05-1.35-6.15-2.7-9.25-3.95-.3-.1-.7.05-.8.35-.15.345 0 .7.35.85 3.1 1.2 6.2 2.55 9.2 3.9.1.05.15.05.25.05.25 0 .5-.15.6-.35.15-.354 0-.7-.35-.85zm-117.65-8.7c-3.15 1.05-6.35 2.25-9.45 3.5-.35.15-.5.5-.35.796.1.255.35.405.55.405.1 0 .2 0 .25-.05 3.1-1.25 6.25-2.45 9.4-3.5.3-.1.5-.45.35-.75-.1-.35-.45-.5-.75-.4zm98.95 1.25c-3.2-1.1-6.4-2.1-9.6-3-.35-.1-.7.1-.8.45-.1.3.1.65.45.75 3.15.9 6.4 1.9 9.55 3h.2c.25 0 .5-.15.6-.4.1-.355-.05-.7-.4-.8zm-79.5-6.45c-3.3.646-6.6 1.4-9.8 2.3-.35.05-.55.4-.45.75.05.25.3.45.6.45h.15c3.2-.85 6.5-1.604 9.75-2.25.3-.05.55-.4.5-.75-.1-.3-.4-.55-.75-.5zm60.1 1c-3.3-.7-6.65-1.35-9.9-1.85-.35-.05-.7.2-.75.5-.05.35.2.7.55.75 3.25.5 6.55 1.1 9.85 1.8.05.05.1.05.1.05.3 0 .55-.2.65-.5.05-.35-.15-.65-.5-.75zm-40.05-3.45h-.05c-3.35.2-6.75.5-10.05.9-.35.05-.6.35-.55.7.05.3.3.55.65.55h.05c3.3-.4 6.65-.7 10-.9.3 0 .6-.3.55-.655 0-.295-.3-.595-.6-.595zm20.1.4c-3.3-.3-6.7-.5-10.05-.55-.35 0-.65.25-.65.6s.25.65.6.65c3.35.05 6.7.25 10 .55h.05c.35 0 .6-.25.65-.6 0-.355-.25-.65-.6-.65z" fill="#D8D5DB"/><path fill-rule="evenodd" clip-rule="evenodd" d="M497.317 135.051l-6.5 11.3-.85 1.45-9.405 16.25-2.045 3.6-60.3 104.4-10 17.3-10-17.3-35.75-61.9-5.5-9.5-12.255-21.25-28.695-49.7h184.4l-3.1 5.35zm-185.6-7.85l32.995 57.15 9.4 16.3 5.505 9.5 35.745 61.9 12.855 22.3 12.9-22.3 59.645-103.35 2.1-3.6 16.305-28.2 4.5-7.85.4-.65.7-1.2h-193.05z" fill="#fff"/><path fill-rule="evenodd" clip-rule="evenodd" d="M342.815 382.099c.15.55-.1 1.355-.65 2.35-1.25 2.35-4.245 5.7-7.395 8.45-.655.555-1.305 1.1-1.955 1.55-1.9 1.55-3.75 2.755-5.2 3.2-5.1 1.7-27.15-1.2-32.5-4.1-.345-.2-.6-.4-.85-.65-2.195.15-5.45.2-9.4 0-1.8-.095-3.75-.25-5.85-.55-4.95-.55-10.6-1.7-16.7-3.65-3-.895-6.15-2.05-9.35-3.45-3-1.35-6.1-2.9-9.2-4.7-.75-.4-1.3-.9-1.95-1.295.6 4.6 1.2 9.145 1.85 13.645.2 1.25.4 2.5.55 3.7.55 3.55 1.1 7.055 1.7 10.5 2.35 13.55 5.05 26.3 8.3 37.7.3 1.2.65 2.405 1 3.55-1.05.15-2.1.305-3.1.45.25 1.15.45 2.355.65 3.55 2.5 13.5 4.4 30.15 5.8 47.25-58.7 23.25-113.35 28.7-151.05 5.65-12-7.3-22.25-17.5-30.4-30.95l-3.9-6.45c.25-7.05.55-13 .8-17.05-.95-.1-1.45-.1-1.45-.1 0-8.15.35-18.85.9-31.2.05-.5.05-1 .05-1.55.2-3.5.4-7.1.65-10.85.2-4.6.5-9.295.8-14.2.45-7.1.95-14.5 1.5-22-12.2-3.25-22.4-6.75-28.15-10.25-7.5-4.55-10.35-10.9-10.15-17.15-.1-1.25-.1-2.6.2-4 2.85-9.45 12.65-37.6 23.75-65.55l-12.3-4.2s35.95-64.05 57.05-78.15c.1-.05.15-.1.25-.15 7.45-6.9 18.2-11.35 34.3-13.15.1-13.35-.95-35.9-2.05-53.15-5.25-1.2-8.8-5.55-10.8-9.15-.25-.4-.5-.8-.65-1.15-.8-1.55-1.25-2.85-1.45-3.5-1.1-4.4-.05-8.05 2.1-10.4-.45-3.65-1.1-9.65-1.35-15.95-.5-11.6.15-24.3 5.4-25.45-.05-.15-.15-.25-.2-.35-1.35-4.15 1.1-8.75 1.2-8.9l2.2 1.15c0 .05-2 3.85-1.05 6.95 4.2-4.65 18.35-6.15 33.2-5.3.85 0 1.75.1 2.6.15 3.05.25 6.1.55 9.1 1 1 .1 1.95.25 2.9.45.5.05 1.05.15 1.55.25 3.25.55 6.35 1.25 9.2 2.05 4.9 1.35 9 3.05 11.75 5 .9.6 1.6 1.25 2.2 1.9 2.5 2.9 2.9 4.95 1.8 6.3-.65.75-1.7 1.3-3.1 1.7.6 4.2.85 7.85.95 11.2.3.8.6 1.65.9 2.5.25.75.5 1.55.75 2.35.05.05.1.05.15.1.3.25.6.45.9.7 1.1 1 2.1 2.25 2.85 3.9l-2.25 1.05c-.05-.1-.1-.15-.15-.25.6 2.55 1.15 5.2 1.55 8 .6 4.15 1.25 8.3 1.9 12.35.2 1.55.4 3.1.6 4.6.45 3.1.85 6.15 1.1 9.05.1.9.2 1.75.2 2.6 1.05 13.2-.2 24.15-8.1 29.65-1.5 1.1-3.3 2-5.35 2.6-2.6.85-5.7 1.3-9.3 1.35.1 3.5.3 6.9.6 10.1.15 1.25.3 2.5.5 3.65.15 1.2.35 2.4.6 3.5 13.35 3.2 23.4 8.6 29.75 15.95.3.3.65.6.95.95 3.55 3.45 7 8.755 10.25 15.1 4.1 7.95 7.95 17.605 11.35 27.25.25.75.5 1.55.8 2.3.25.85.55 1.65.8 2.5 1.4 4.15 2.7 8.3 3.9 12.255.9 2.945 1.7 5.8 2.5 8.495 3.85 13.555 6.1 23.555 6.1 23.555l-6.1 1.445-2.5.6-1.8.455c.6 2.395 1.2 4.745 1.8 7.145.05.25.15.55.2.805.8 3.1 1.55 6.25 2.3 9.295 3.85 15.65 7.1 30.15 8.55 39.75 4.3 3.55 7.45 9.1 12.1 14.255 4.7 5.195 11.05 9.895 21.8 11.745.05 0 .05.05.1.05 4.205-3.3 12-7.195 16.75-8.645.65-.155 1.205-.305 1.7-.405.4-.1.755-.15 1.05-.15 2.005-.4 2.3-.25 3.5.5.45.35 1.05.8 2 1.35 3.9 2.3 8 4.45 11.55 6.55 4.4 2.555 7.85 5 8.85 7.6.1.155.15.35.2.5z" fill="#D1CDD3"/><path fill-rule="evenodd" clip-rule="evenodd" d="M357.669 367.426c-3.565-2.134-2.525-2.405-6.555-1.664-4.35.804-13.71 5.295-18.445 9.035-.05-.005-.085-.031-.135-.04-21.44-3.676-25.21-18.84-33.88-26.02-4.805-31.48-29.015-117.15-29.015-117.15l-36.48 13.565c5.315 36.095 26.705 104.745 32.255 120.235a15.132 15.132 0 003.4 4.575c1.82 3.845 5.09 7.555 10.375 10.61 21.87 12.645 42.57 12.82 50.49 12.315.255.255.545.475.875.66 5.365 2.93 27.375 5.799 32.515 4.114 5.225-1.714 15.925-12.544 15.155-15.544-1.25-4.9-11.62-9.34-20.555-14.691z" fill="#FFAD69"/><path fill-rule="evenodd" clip-rule="evenodd" d="M236.904 208.447c-10.3 23.15-6.515 96.505-6.515 96.505l65.825-15.69s-32.15-141.885-59.31-80.815z" fill="#377ADB"/><path fill-rule="evenodd" clip-rule="evenodd" d="M292.615 484.399c-11.395 5.705-22.8 10.8-34.05 15.2-58.7 23.25-113.345 28.7-151.05 5.65.55-21.65 1.3-44.2 1.9-54.45.1-1.2.2-2.25.25-3.1l20.2-.4h.9l.05-.05 109.3-2.145h.105l6.995-.155 7-.15 32.3-.65c.355 1.5.7 3.1 1 4.705 2.1 10.2 3.75 22.445 5.1 35.545z" fill="#232323"/><path fill-rule="evenodd" clip-rule="evenodd" d="M188.55 177.429c-39.27 1.295-52.545 14.55-59.315 37.475-7.69 26.03-21.23 183.25-21.23 235.785 0 0 117.525 8.33 182.63-2.345-20.415-68.955-22.62-192.935-23.03-229.875-.305-27.71-29.275-42.685-79.055-41.04z" fill="#4D8DFF"/><mask id="mask1" maskUnits="userSpaceOnUse" x="0" y="0" width="533" height="521"><path fill-rule="evenodd" clip-rule="evenodd" d="M0 520.035h532.615V0H0v520.035z" fill="#fff"/></mask><g mask="url(#mask1)" fill-rule="evenodd" clip-rule="evenodd"><path d="M194.965 314.3h57.2v-69.35h-57.2v69.35zm-2.5 2.5h62.2v-74.35h-62.2v74.35z" fill="#fff"/><path d="M223.145 113.139c3.865-2.915 24.045-.27 18.235-41.355-2.12-14.99-16.195-4.985-26.16-2.985-9.97 2-3.63 45.08-3.63 45.08l11.555-.74z" fill="#232323"/><path d="M172.901 103.298c1.675 10.89 5.025 69.805 3.63 83.49-1.395 13.685 64.785 17.59 56.125 2.515-8.655-15.08-2.51-65.065-2.51-65.065l-57.245-20.94z" fill="#FFAD69"/><path d="M177.48 104.963l52.655 19.28s-3.555 29.11-1.41 49.61c-40.15-3.105-50.455-53.815-51.13-63.58-.115-1.84-.17-3.615-.115-5.31z" fill="#D88344"/><path d="M247.041 101.443c4.88 33.634 13.165 67.175-27.605 61.649-40.775-5.519-47.105-57.794-46.99-67.65.635-52.614 65-60.14 74.595 6.001z" fill="#FFAD69"/><path d="M242.693 63.886c-9.595-11.145-63.54-15.35-72.47-5.48-.98-3.1 1.02-6.91 1.04-6.944l-2.2-1.186c-.105.19-2.54 4.785-1.215 8.915.045.13.155.22.2.35-9.87 2.176-3.57 45.056-3.57 45.056l11.555-.74c3.865-2.91 17.28-23.4 20.235-35.766 21.125 3.576 58.62 9.96 46.425-4.204z" fill="#232323"/><path d="M236.956 368.613c-4.13.23-20.155 3.015-25.78 1.71-18.905-4.415-67.625-26.27-93.85-38.485 16.135-35.025 39.885-97.015 39.885-97.015l-37.345-10.96c-17.33 32.105-41.266 99.91-46.085 115.645-.27 1.41-.29 2.735-.206 4.005-.17 6.225 2.68 12.58 10.165 17.14 20.761 12.645 99.076 24.915 120.766 27.31.4.81.93 1.545 1.79 2.03 5.305 2.98 29.445 5.21 34.41 6.09 6.225 1.1 25.12 2.7 24.305.17-1.335-4.145-8.34-28.745-28.055-27.64z" fill="#FFAD69"/><path d="M142.28 191.618c-21.065 14.08-57.025 78.125-57.025 78.125l64.035 21.875s48.56-137.14-7.01-100z" fill="#4D8DFF"/><path d="M212.71 99.78c-.13 1.64.755 3.045 1.98 3.145 1.23.095 2.33-1.15 2.465-2.79.135-1.635-.755-3.045-1.985-3.145-1.225-.095-2.33 1.15-2.46 2.79zm25.972.689c-.13 1.64.755 3.045 1.98 3.145 1.23.095 2.33-1.15 2.465-2.79.13-1.635-.76-3.046-1.985-3.145-1.225-.096-2.33 1.15-2.46 2.79zm-32.361-9.893l-2.095-1.365c4.42-6.77 11.84-5.2 12.16-5.13l-.545 2.44c-.24-.05-6.065-1.24-9.52 4.055zm39.316 3.118c-2.645-5.755-8.585-5.44-8.82-5.416l-.175-2.495c.32-.02 7.89-.484 11.265 6.865l-2.27 1.046zm-24.583 37.053c-4.225 0-12.35-1.2-17.395-9.59l2.14-1.29c6.115 10.17 17.085 8.315 17.55 8.23l.455 2.455c-.04.01-1.095.195-2.75.195z" fill="#232323"/><path d="M240.278 119.355l-12.14-.165.035-2.5 8.755.12-5.405-18.435 2.395-.705 6.36 21.685z" fill="#D88344"/><path d="M182.788 107.578c3.68 8.3 8.295 16.33-3.27 17.82-11.565 1.495-16.945-11.49-17.6-14.035-3.5-13.576 13.625-20.106 20.87-3.785z" fill="#FFAD69"/><path d="M495.891 407.084H17.451c-3.905 0-7.1-3.195-7.1-7.1s3.195-7.1 7.1-7.1h478.44c3.905 0 7.1 3.195 7.1 7.1s-3.195 7.1-7.1 7.1z" fill="#fff"/><path d="M194.512 407.084H13.902c-3.905 0-7.1-3.195-7.1-7.1s3.195-7.1 7.1-7.1h180.61c3.905 0 7.1 3.195 7.1 7.1s-3.195 7.1-7.1 7.1z" fill="#D8D5DB"/><path d="M472.464 381.611h-148.41c-5.665 0-9.425-4.6-8.395-10.27l16.185-89.005c1.035-5.675 6.465-10.27 12.14-10.27h148.405c5.67 0 9.43 4.595 8.4 10.27l-16.185 89.005c-1.035 5.67-6.465 10.27-12.14 10.27z" fill="#2B2B2B"/><path d="M476.091 381.611h-148.41c-5.665 0-9.425-4.6-8.395-10.27l16.185-89.005c1.03-5.675 6.465-10.27 12.135-10.27h148.405c5.675 0 9.435 4.595 8.405 10.27l-16.19 89.005c-1.03 5.67-6.465 10.27-12.135 10.27z" fill="#232323"/><path d="M426.565 344.848H390.62l6.545-35.995h35.955l-6.555 35.995zm-31.5-38.495l-7.45 40.995h41l7.5-40.995h-41.05z" fill="#fff"/><path d="M298.025 384.457c0 4.635 3.795 8.43 8.435 8.43h155.245c4.64 0 8.435-3.795 8.435-8.43H298.025z" fill="#232323"/><path d="M252.922 384.457c0 4.635 3.79 8.43 8.43 8.43h61.05c4.64 0 8.435-3.795 8.435-8.43h-77.915z" fill="#2B2B2B"/><path d="M423.45 108.227c-5.255 0-9.515 4.265-9.515 9.52h19.035c0-5.255-4.26-9.52-9.52-9.52z" fill="#377ADB"/><path d="M423.459 108.229v92.431c0 5.264-4.27 9.489-9.535 9.489h-69.205v-92.38c0-5.27 4.265-9.54 9.495-9.54h69.245z" fill="#4D8DFF"/><path d="M404.431 200.659l-69.24-.01c0 5.255 4.265 9.515 9.525 9.515l69.205-.015a9.463 9.463 0 01-9.49-9.49z" fill="#6EA9FF"/><path d="M355.07 123.75h58.05v-2.5h-58.05v2.5zm0 9.47h58.05v-2.5h-58.05v2.5zm0 9.47h58.05v-2.5h-58.05v2.5zm0 9.47h58.05v-2.5h-58.05v2.5zm0 9.47h58.05v-2.5h-58.05v2.5zm0 9.47h58.05v-2.5h-58.05v2.5zm0 9.47h58.05v-2.5h-58.05v2.5zm0 9.47h58.05v-2.5h-58.05v2.5z" fill="#fff"/><path d="M520.183 157.893c-13.25 13.25-34.74 13.25-47.995 0-13.25-13.255-13.25-34.74 0-47.995 13.255-13.255 34.745-13.255 47.995 0s13.25 34.74 0 47.995z" fill="#FFC84D"/><path d="M496.189 133.896l26.965 26.965c-14.79 14.795-39.145 14.795-53.935 0a38.18 38.18 0 01-11.025-23.64l37.995-3.325z" fill="#232323"/><path d="M496.189 133.896l-37.88 4.415c-.5-4.275-.27-8.605.68-12.81.945-4.2 2.595-8.21 4.885-11.86l32.315 20.255z" fill="#fff"/><path d="M330.071 84.8h-28.75c-3.71 0-6.75-3.035-6.75-6.75V49.304c0-3.71 3.04-6.75 6.75-6.75h28.75c3.71 0 6.75 3.04 6.75 6.75v28.744c0 3.715-3.04 6.75-6.75 6.75z" fill="#232323"/><path d="M321.667 93.203h-28.75c-3.71 0-6.75-3.035-6.75-6.75V57.707c0-3.71 3.04-6.75 6.75-6.75h28.75c3.71 0 6.75 3.04 6.75 6.75v28.745c0 3.715-3.04 6.75-6.75 6.75z" fill="#FF4E4A"/></g></svg>