<svg width="542" height="609" fill="none" xmlns="http://www.w3.org/2000/svg"><path d="M538.65 395.3a182.854 182.854 0 01-58.9 105 223.231 223.231 0 01-34.5 25c-43.25 26.15-96.85 42-152.65 55l-9.55 2.15a96.022 96.022 0 01-25.3 2.3c-88.75-3.7-149.2-135.25-168-273.7C73.35 187.8 100.8 48.2 223.7 41.9c46.15-2.3 100 20.7 150 57.7 3.6 2.65 7.2 5.4 10.75 8.2l2.2 1.75c93.35 74.4 169.6 195.05 152 285.75z" fill="#FDE6D6"/><path d="M103.05 511.35c6.95 14.05 9.5 31.85-4.45 37.55-15.6 6.4-40.5-3.9-47.7-27.35-4.65-15-3.05-35.9 10-43.95 10.65-6.9 33.85 16.55 42.15 33.75z" fill="#F5F9FD"/><path d="M484.75 196.25c-6.25-5.45-11.25-13.55-5.95-19 5.3-5.45 19.6-5.9 28 4.05 5.35 6.35 9.05 16.75 5 23.1-3.6 5.4-19.25-1.5-27.05-8.15z" fill="#FFAD69"/><path fill-rule="evenodd" clip-rule="evenodd" d="M189.75 115.55c-3.3-.35-6.65-.6-10-.75a.65.65 0 110-1.25c2.998 0 6.078.33 9.09.653l.91.097a.597.597 0 01.55.7.65.65 0 01-.55.55zm-49.5 3.6a.7.7 0 01-.6-.45.65.65 0 01.45-.8c3.15-.85 6.45-1.6 10-2.25a.601.601 0 01.75.45.65.65 0 01-.5.75c-3.3.65-6.55 1.4-9.7 2.25l-.4.05zm79.1 2c3.2.85 6.4 1.75 9.6 2.75h.45a.6.6 0 000-1.2c-3.25-1.05-6.5-1.95-9.65-2.8a.652.652 0 00-.85.5.7.7 0 00.45.75zm-97.95 4.8a.7.7 0 01-.55-.35.65.65 0 01.3-.85c3-1.35 6.1-2.65 9.3-3.8a.601.601 0 01.8.35.65.65 0 01-.35.8 126.48 126.48 0 00-9.2 3.8l-.3.05zm117.1 1.1c3.1 1.1 6.25 2.3 9.35 3.5l.45.05a.6.6 0 000-1.2c-3.1-1.2-6.25-2.4-9.4-3.5a.7.7 0 00-.8.35.65.65 0 00.4.8zm-134.4 8.9a.55.55 0 01-.5-.25.601.601 0 010-.85c2.75-1.95 5.55-3.8 8.45-5.45a.65.65 0 01.65 1.1c-2.85 1.65-5.7 3.45-8.35 5.35a.606.606 0 01-.2.1h-.05zm161.85 2.55h.35a.6.6 0 00.5-.3.6.6 0 00-.3-.8c-3-1.45-6.05-2.8-9.15-4.15a.6.6 0 00-.8.3.65.65 0 00.3.85c3.05 1.3 6.15 2.7 9.1 4.1zM89.07 149.06a.61.61 0 01-.37-.01.602.602 0 010-.85c2.35-2.45 5-5 7.3-6.95a.65.65 0 01.9 0 .65.65 0 010 .9c-2.45 2.15-5 4.45-7.2 6.85a.65.65 0 01-.63.06zm212.48 8.49h-.3c-2.8-1.75-5.7-3.45-8.6-5a.615.615 0 01.033-1.069.618.618 0 01.617.019c1.516.862 3.031 1.752 4.533 2.633v.001h.001l.001.001.003.001.005.003c1.368.803 2.724 1.599 4.057 2.361a.602.602 0 010 .85.547.547 0 01-.35.2zm-225.3 7.1h.35a.55.55 0 00.6-.1c1.63-2.643 3.376-4.859 5.136-7.093l.714-.907a.6.6 0 000-.9.6.6 0 00-.85 0c-2.05 2.6-4.05 5.3-5.95 8.15a.602.602 0 000 .85zm242.15 3.75a.398.398 0 01-.35 0l-8.3-5.6a.618.618 0 01.65-1.05c2.833 1.8 5.633 3.65 8.4 5.55a.65.65 0 010 .85.499.499 0 01-.4.25zM66.8 181.9a.599.599 0 01-.3-.85c1.4-3.05 2.95-6.05 4.55-8.95a.65.65 0 111.1.6c-1.6 2.85-3.1 5.85-4.55 8.9a.597.597 0 01-.8.3zm283.25 10.5c.129.05.271.05.4 0 .14.008.28-.027.4-.1a.6.6 0 000-.85c-1.799-1.381-3.454-2.742-5.083-4.082l-.001-.001-.004-.003a308.759 308.759 0 00-2.712-2.214.65.65 0 00-.8 1c1.933 1.381 3.676 2.833 5.425 4.292.785.653 1.57 1.308 2.375 1.958zm-290.3 8.35a.7.7 0 01-.4-.8c1.05-3.25 2.15-6.45 3.35-9.5a.7.7 0 01.8-.35.602.602 0 01.35.8c-1.15 3-2.25 6.2-3.3 9.4a.65.65 0 01-.8.45zm305.949 4.732a.679.679 0 01-.199-.032c-2.45-2.25-5-4.45-7.55-6.6a.701.701 0 010-.9.65.65 0 01.9 0l7.55 6.6c.218.26.218.64 0 .9a.652.652 0 01-.701.032zM54.33 219.888a.6.6 0 00.42.262.653.653 0 00.7-.7c.7-3.25 1.45-6.55 2.3-9.75a.65.65 0 00-.45-.75.6.6 0 00-.8.45l-.484 2.077v.001c-.634 2.706-1.248 5.33-1.766 7.922a.6.6 0 00.08.488zM394.3 233.55a.551.551 0 01-.45 0c-2.25-2.45-4.6-5-6.9-7.25a.65.65 0 010-.9.701.701 0 01.9 0c.993 1.036 1.994 2.109 2.993 3.179h.001a244.194 244.194 0 003.906 4.121.65.65 0 010 .9.797.797 0 01-.45-.05zM50.8 239.2a.65.65 0 00.55.7.65.65 0 00.7-.5c.4-3.45.85-6.8 1.35-10a.549.549 0 00-.5-.7.6.6 0 00-.7.5c-.55 3.3-1 6.65-1.4 10zm356.8 9.35a.647.647 0 01-.5 0l-6.55-7.6a.601.601 0 010-.85.6.6 0 01.9 0c1.59 1.774 3.207 3.658 4.831 5.55.572.667 1.146 1.335 1.719 2a.65.65 0 010 .9.552.552 0 01-.4 0zM49.307 259.657a.597.597 0 00.443.193.65.65 0 00.65-.55c.06-1.351.17-2.71.279-4.064.16-2.004.321-3.997.321-5.936a.7.7 0 00-.6-.7.6.6 0 00-.65.6c-.054.71-.112 1.422-.17 2.136-.214 2.605-.43 5.234-.43 7.864a.6.6 0 00.157.457zM420.3 264.2a.598.598 0 01-.5 0c-2.05-2.7-4.1-5.35-6.15-7.9a.6.6 0 010-.85.6.6 0 01.9 0c.609.776 1.227 1.543 1.849 2.316l.001.001c1.424 1.766 2.874 3.566 4.3 5.583a.65.65 0 010 .9l-.4-.05zM49.15 279.3a.6.6 0 00.6.6h.05a.597.597 0 00.6-.65v-10a.6.6 0 00-.65-.6.6.6 0 00-.6.6v10.05zm382.6 1.2a.8.8 0 01-.55 0c-1.8-2.7-3.7-5.45-5.65-8.25a.601.601 0 010-.85.65.65 0 01.9 0c2 2.75 3.9 5.55 5.7 8.25a.65.65 0 010 .85.497.497 0 01-.4 0zm10.1 16.7c.096.187.29.304.5.3l.35-.3a.601.601 0 000-.85c-1.45-2.85-3.2-5.7-5-8.6a.65.65 0 00-.85 0 .701.701 0 000 .9c.96 1.71 1.974 3.42 2.988 5.13.676 1.14 1.352 2.28 2.012 3.42zm-391.3 2.7a.6.6 0 01-.6-.55c0-2.042-.18-4.085-.357-6.084-.117-1.329-.233-2.638-.293-3.916a.65.65 0 01.6-.65.6.6 0 01.65.6c0 2.331.206 4.713.414 7.129.083.952.165 1.91.236 2.871a.6.6 0 01-.6.65l-.05-.05zm400.7 14.9a.75.75 0 00.6.35v-.05a.65.65 0 00.3-.85c-1.45-2.95-3-5.95-4.6-8.95a.65.65 0 00-.85-.25.65.65 0 000 .85c1.6 3 3.15 6 4.55 8.9zm-398.6 5.05a.65.65 0 01-.65-.55c-.4-3.3-.8-6.65-1.15-10a.6.6 0 01.55-.7.65.65 0 01.7.55c.35 3.3.75 6.65 1.15 10a.6.6 0 01-.55.7h-.05zm406.5 13.25a.65.65 0 00.6.4l.2-.05a.601.601 0 00.35-.8c-1.15-3.1-2.45-6.2-3.8-9.3a.65.65 0 00-.85-.3.596.596 0 00-.3.8c1.35 3.1 2.6 6.2 3.8 9.25zm-403.5 6.55a.6.6 0 01-.6-.5c-.6-3.3-1.15-6.65-1.65-10a.65.65 0 01.55-.75.65.65 0 01.7.55 683.52 683.52 0 001.195 7.51l.405 2.49a.65.65 0 01-.5.75l-.1-.05zM465.85 352a.6.6 0 00.6.5l.15-.05a.599.599 0 00.45-.75c-.9-3.15-1.9-6.4-2.95-9.6a.599.599 0 00-.8-.4.599.599 0 00-.4.8c1.05 3.15 2.05 6.4 2.95 9.5zm-406.1 7.3a.6.6 0 01-.6-.5c-.75-3.3-1.45-6.6-2.05-10a.6.6 0 01.5-.75.6.6 0 01.7.5c.269 1.324.547 2.665.83 4.031v.008c.4 1.932.81 3.912 1.22 5.961a.6.6 0 01-.45.75h-.15zm410.1 12.1a.65.65 0 00.65.5l.1-.05a.601.601 0 00.5-.7c-.5-3.4-1.1-6.7-1.85-10a.65.65 0 00-.75-.5.65.65 0 00-.45.75c.7 3.5 1.3 6.8 1.8 10zm-405.4 7.85a.6.6 0 01-.6-.45v-.5c-.85-3.25-1.7-6.5-2.5-10a.7.7 0 01.5-.75.7.7 0 01.75.45v.003c.8 3.249 1.6 6.498 2.45 9.697v.5a.65.65 0 01-.45.8l-.15.25zM471.6 391.3a.6.6 0 00.6.6l.05-.05a.65.65 0 00.6-.65c-.023-1.551-.135-3.125-.247-4.699v-.002c-.127-1.775-.253-3.551-.253-5.299a.652.652 0 00-.7-.6.597.597 0 00-.55.7c.25 3.35.5 6.7.5 10zm-401.85 7.2a.65.65 0 01-.6-.4c-.95-3.2-1.9-6.45-2.8-9.65a.6.6 0 01.45-.75.599.599 0 01.75.4c.9 3.25 1.85 6.45 2.8 9.6a.65.65 0 01-.4.8h-.2zm400.771 13.255a.55.55 0 00.429.195l.2-.05a.65.65 0 00.5-.55c.075-.698.157-1.4.24-2.107.302-2.584.61-5.223.61-7.893a.7.7 0 00-.6-.65.6.6 0 00-.65.6c-.2 3.4-.5 6.75-.85 10a.548.548 0 00.121.455zM75.95 417.6a.7.7 0 01-.6-.45c-1.05-3.15-2.1-6.3-3.1-9.5a.65.65 0 011.2-.4c1 3.2 2.05 6.35 3.1 9.5a.598.598 0 01-.4.8l-.2.05zm391.15 13.1a.65.65 0 00.5.75l.3.45a.702.702 0 00.45-1c.7-3.45 1.35-6.75 1.85-10a.602.602 0 00-.5-.7.65.65 0 00-.75.5c-.5 3.4-1.15 6.7-1.85 10zm-384.75 5.75a.65.65 0 01-.6-.4c-1.15-3.1-2.3-6.25-3.4-9.4a.617.617 0 111.15-.45c.383 1.05.761 2.1 1.139 3.149a358.062 358.062 0 002.311 6.301.65.65 0 01-.4.8h-.2zm379.6 13.65a.65.65 0 00.4.8h.2a.65.65 0 00.6-.4c1.05-3.15 2.05-6.4 2.95-9.6a.619.619 0 00-1.2-.3c-.9 3.15-1.85 6.35-2.95 9.5zm-372.2 5a.551.551 0 01-.55-.35c-1.3-3.1-2.55-6.2-3.75-9.3a.6.6 0 01.35-.85.65.65 0 01.8.4c1.2 3.1 2.45 6.2 3.75 9.25a.7.7 0 01-.35.85h-.25zm364.7 13.45a.65.65 0 00.3.85.65.65 0 00.85-.3c1.45-2.95 2.8-6.05 4.1-9.15a.65.65 0 00-.35-.8.6.6 0 00-.8.3c-1.3 3.1-2.65 6.15-4.1 9.1zm-356.6 4.95a.6.6 0 01-.55-.35c-1.4-3.05-2.75-6.1-4.1-9.2a.6.6 0 01.3-.8.6.6 0 01.85.35c1.02 2.394 2.102 4.788 3.173 7.158.294.649.587 1.297.877 1.942a.65.65 0 01-.3.85l-.25.05zm346.85 13.35h.3l.1.05a.698.698 0 00.7-.25 413.638 413.638 0 012.366-4.067l.003-.004c.88-1.5 1.769-3.015 2.631-4.529a.65.65 0 10-1.1-.6c-1.5 2.9-3.2 5.75-5 8.55a.601.601 0 000 .85zm-338.15 4.7a.6.6 0 01-.55-.35c-1.55-3-3.05-6.05-4.45-9a.6.6 0 01.3-.8.6.6 0 01.8 0l4.45 9a.65.65 0 01-.25.85l-.3.3zM432.85 503h.5a.546.546 0 00.3 0c2.15-2.6 4.2-5.3 6.15-7.95a.602.602 0 10-.85-.85c-1.595 2.371-3.256 4.409-4.957 6.494-.379.465-.76.932-1.143 1.406a.65.65 0 000 .9zm-316.8 6.2a.648.648 0 01-.55-.3l-.377-.671c-1.482-2.641-3.01-5.364-4.623-8.129a.65.65 0 011.1-.6c1.6 3 3.25 5.95 5 8.75a.65.65 0 010 .85l-.55.1zm303.3 8.6a.447.447 0 00.4 0c.117.08.259.115.4.1 2.202-2.064 4.362-4.423 6.402-6.652l.002-.002.001-.001.545-.595a.65.65 0 000-.9.6.6 0 00-.85 0c-1.202 1.202-2.449 2.524-3.717 3.867l-.001.002c-1.052 1.114-2.117 2.243-3.182 3.331a.55.55 0 000 .85zm-293 8.5a.701.701 0 01-.55-.3c-1.75-2.75-3.55-5.65-5.3-8.5a.65.65 0 010-.85.601.601 0 01.85 0c1.432 2.4 2.934 4.801 4.419 7.171v.002l.831 1.327a.65.65 0 010 .85l-.25.3zm278.05 4.75a.7.7 0 00.5.25l.15-.05a.628.628 0 00.15-.15l7.6-6.55a.65.65 0 000-.9.6.6 0 00-.85 0c-.991.855-1.966 1.709-2.938 2.561l-.004.004h-.001l-.001.001-.001.001-.001.001h-.001v.001l-.001.001-.001.001H409l-.001.001v.001h-.001l-.001.001a312.598 312.598 0 01-4.597 3.976.601.601 0 000 .85zm-266.75 11.9a.6.6 0 01-.5-.3c-1.95-2.6-3.9-5.35-5.8-8.15a.701.701 0 010-.9.65.65 0 01.9 0c1.9 2.75 3.85 5.5 5.75 8.15a.602.602 0 010 .85.645.645 0 01-.2.3l-.15.05zm250.85.5a.598.598 0 00.5 0l.15-.05a.492.492 0 00.15.05c2.8-1.95 5.5-3.95 8.1-5.95a.602.602 0 10-.85-.85c-2.336 1.797-4.753 3.554-7.214 5.342l-.007.005-.004.003-.825.6a.601.601 0 000 .85zm-16.25 11.05a.551.551 0 01-.5-.3.601.601 0 010-.85c2.9-1.8 5.75-3.6 8.45-5.4a.601.601 0 01.85.85c-2.7 1.8-5.55 3.6-8.45 5.4l-.35.3zm-222.65 4.15a.695.695 0 00.5 0l.45.1a.65.65 0 000-.9c-1.118-1.438-2.251-2.776-3.382-4.114l-.001-.001h-.001v-.001l-.001-.001v-.001h-.001l-.001-.001v-.001l-.001-.001-.001-.001-.001-.001-.001-.001v-.001l-.001-.001-.001-.001-.001-.001v-.001h-.001v-.001l-.001-.001h-.001v-.001l-.001-.001v-.001h-.001l-.001-.001v-.001l-.001-.001-.001-.001-.001-.001v-.001h-.001v-.001l-.001-.001-.002-.002a142.281 142.281 0 01-2.943-3.556.606.606 0 00-.95.75c2.1 2.75 4.2 5.3 6.35 7.75zm205.5 5.9a.7.7 0 01-.55-.35.65.65 0 01.25-.85c2.95-1.6 5.9-3.25 8.7-5a.65.65 0 01.85 0 .601.601 0 010 .85l-8.75 5-.5.35zm-191.6 8.7c.129.05.271.05.4 0v-.05a.502.502 0 00.45 0 .55.55 0 000-.85c-2.296-2.146-4.643-4.643-6.989-7.139l-.001-.001-.001-.001-.001-.001-.001-.001-.001-.001-.001-.001-.001-.001v-.001h-.001l-.001-.001v-.001h-.001l-.001-.001a.65.65 0 00-.9 0 .55.55 0 000 .85c2.367 2.5 4.717 4.9 7.05 7.2zm173.8.5a.6.6 0 01-.55-.35.6.6 0 01.3-.85l8.9-4.5a.65.65 0 11.6 1.1c-3 1.55-5.95 3.05-9 4.5l-.25.1zm-18.7 8.1a.602.602 0 00.55.4l.25-.05 9.1-4.2a.65.65 0 10-.5-1.15c-2.13 1.029-4.284 2.008-6.446 2.99l-.005.002-.003.002c-.881.4-1.764.801-2.646 1.206a.596.596 0 00-.3.8zm-139.45 4.5a.552.552 0 01-.35 0c-1.544-1.187-3.017-2.41-4.545-3.679-1.046-.868-2.117-1.757-3.255-2.671a.621.621 0 01.8-.95l.545.47.015.013c2.351 2.031 4.642 4.01 7.19 5.817a.6.6 0 010 .9.601.601 0 01-.5.05l.1.05zm121.15 3.45c.087.224.31.366.55.35l.25-.05c3.1-1.25 6.15-2.55 9.25-3.9a.596.596 0 00.3-.8.7.7 0 00-.8-.35c-3.05 1.35-6.15 2.65-9.25 3.9a.65.65 0 00-.3.85zm-104.45 7.4h-.3c-2.634-1.408-5.268-2.981-7.865-4.532h-.002a161.57 161.57 0 00-.783-.468.65.65 0 010-.85.601.601 0 01.85 0c2.8 1.85 5.7 3.55 8.55 5a.65.65 0 010 .85.65.65 0 01-.45-.05v.05zm85.8.05a.602.602 0 00.55.4l.25-.05 9.3-3.7a.65.65 0 00.35-.8.65.65 0 00-.8-.35l-9.3 3.7a.549.549 0 00-.35.8zm-18.15 7.45a.6.6 0 01-.6-.45.65.65 0 01.4-.8c1.436-.446 2.922-.991 4.408-1.537h.002v-.001h.003v-.001h.003l.001-.001h.002l.001-.001h.003v-.001h.003v-.001h.003v-.001h.003l.001-.001h.002l.001-.001h.003v-.001h.003v-.001h.003l.001-.001h.002l.002-.001 5-1.85a.601.601 0 01.8.35.549.549 0 01-.35.8l-5 1.9c-1.5.55-3.05 1.1-4.55 1.55l-.15.05zm-58.7-3.15a94.103 94.103 0 009.45 3.45v-.05a.7.7 0 00.8-.35.65.65 0 00-.45-.8 91.172 91.172 0 01-9.3-3.4.7.7 0 00-.85.35.65.65 0 00.35.8zm39.05 6.95a.6.6 0 01-.6-.6.548.548 0 01.55-.65 81.654 81.654 0 0010-1.3.65.65 0 01.75.5.602.602 0 01-.5.7 84.372 84.372 0 01-10 1.35h-.2zm-10 0a84.447 84.447 0 01-10-1.2.6.6 0 01-.5-.75.601.601 0 01.7-.5c3.306.6 6.646 1 10 1.2a.597.597 0 01.6.65.65.65 0 01-.8.6zm146.3-389.3c.085.043.179.06.272.051a.6.6 0 00.628-.001.65.65 0 000-.9c-1.78-1.859-3.778-3.717-5.723-5.527h-.001a622 622 0 01-1.526-1.423.65.65 0 00-.9 0 .601.601 0 000 .85c1.486 1.486 3.102 3.015 4.734 4.559l.001.001.001.001.007.006.005.005.01.01c.832.787 1.668 1.577 2.492 2.368zm-45.75-39.15h.35a.6.6 0 00.4-.15.602.602 0 000-.85l-.002-.002h-.001c-2.699-2-5.398-3.999-8.147-5.948a.65.65 0 00-.7 1.05c2.7 1.9 5.45 3.9 8.1 5.9zm-50.3-32.5h-.3c-2.933-1.6-5.883-3.15-8.85-4.65a.65.65 0 01-.2-1 .599.599 0 01.85-.25c2.9 1.45 5.9 3.05 8.85 4.65a.602.602 0 010 .85.55.55 0 01-.3.4h-.05zm-84.35-30.65c3.4.5 6.7 1.15 10 1.85a.6.6 0 00.7-.45.65.65 0 00-.5-.75c-3.45-.75-6.8-1.35-10-1.9a.602.602 0 00-.7.5.65.65 0 00.5.75zm-40.422-1.492a.555.555 0 00.422.142h-.05c3.3-.35 6.65-.65 10-.65a.597.597 0 00.6-.65.65.65 0 00-.6-.6c-3.4.1-6.75.35-10 .7a.55.55 0 00-.55.65.55.55 0 00.178.408z" fill="#D8D5DB"/><path d="M469.75 395.75v1.65c-1.25 13.95-13.25 43.7-25 70 .4 9.5.7 18 .75 25v3.7h-1.45c.35 6.2.8 16.95 1.15 29.3-43.25 26.15-96.85 42-152.65 55l-9.55 2.15a96.022 96.022 0 01-25.3 2.3 20.949 20.949 0 01-.55-6.4 678.517 678.517 0 018.8-84.1l-3.1-.45c11.35-38.3 17.05-93.55 20-141.5.35-5.65.65-11.15.9-16.6-7.25 7.4-12.25 12-12.25 12l-15.35-25.25c-18.95 13.7-36.85 25.8-45.6 31.4-7.25 6.8-19.6 7.8-29.3-5-15.7-20.55-37.85-106.8-40.45-121.45a3.844 3.844 0 01-1.05-.6c-3.6-5-16.2-32.25-15-37.55 1.2-5.3 7.1-16.75 13.95-18.3-.8-2.45-1.7-5-3-8.55-2.9-7.9-6.35-15.9-1.15-15 5.2.9 17.1 30 19.15 35 .3-2.35.6-4.25.6-4.25 1.6-4.7 10-7.2 8.75 0-1.45 10 2.05 15 1.9 23.25v1.65c.02.3.02.6 0 .9.027.216.027.434 0 .65v.35a60.837 60.837 0 01-6.4 17.55c5.45 17.8 30.45 64.35 45 90 8.9-7.4 20-16.2 31.5-25l-1-1.65s59.3-55.45 90-59.65c.45-2.15.75-4.5 1.05-6.95.3-2.45.5-6.6.6-10-22.55-.25-24.65-16.85-22.4-37.95l-3.55-.9 5.25-13.6v-1a3.953 3.953 0 01-.95-2.4c0-1.65.45-3.05 1.35-3.1a.552.552 0 01.4 0c0-1.2.4-2.4.55-3.6.4-2.65.9-5 1.4-7.45a10.493 10.493 0 00-4.05 0l-.4-2.45a14.235 14.235 0 015 0 67.318 67.318 0 017.95-19c-7.2-.5-10.6-2.85-5.6-8.65 7.75-9 44.45-13.5 62.95-9.7 6.5 1.35 10.75 3.7 10.8 7.2v1a10.956 10.956 0 004.7-3.8l2.1 1.4a14.104 14.104 0 01-4.6 4.15l-.75.4c19.8 12.9-8.2 82-8.3 82-.55 11.85-.9 23.55-.85 31.8 17.8 2.05 29.05 7.25 36.5 15.4 20 16.05 50.7 81.9 50.7 81.9l-12.55 3.3c8.95 28.7 16.55 57.5 18.75 67.15a17.06 17.06 0 01-.35 4.3z" fill="#D1CDD3"/><rect opacity=".3" x="377.05" y="284.9" width="334.65" height="261.25" rx="33.6" transform="rotate(180 377.05 284.9)" fill="#4D8DFF"/><path opacity=".3" fill-rule="evenodd" clip-rule="evenodd" d="M40.15 308.55h314.6a39.997 39.997 0 0040-40.15V40.15c0-22.091-17.909-40-40-40H40.15c-22.091 0-40 17.909-40 40v228.4c0 22.091 17.909 40 40 40zM1.25 40.15c.028-21.472 17.428-38.872 38.9-38.9h314.6c21.472.028 38.872 17.428 38.9 38.9V268.4c-.028 21.472-17.428 38.872-38.9 38.9H40.15c-21.472-.028-38.872-17.428-38.9-38.9V40.15z" fill="#4D8DFF"/><g opacity=".3" fill="#4D8DFF"><rect x="126.05" y="101.05" width="55.9" height="43.65" rx="5.6" transform="rotate(180 126.05 101.05)"/><rect x="200.45" y="101.05" width="55.9" height="43.65" rx="5.6" transform="rotate(180 200.45 101.05)"/><rect x="274.9" y="101.05" width="55.9" height="43.65" rx="5.6" transform="rotate(180 274.9 101.05)"/><rect x="349.35" y="101.05" width="55.9" height="43.65" rx="5.6" transform="rotate(180 349.35 101.05)"/></g><g opacity=".3" fill="#4D8DFF"><rect x="126.05" y="176.1" width="55.9" height="43.65" rx="5.6" transform="rotate(180 126.05 176.1)"/><rect x="200.45" y="176.1" width="55.9" height="43.65" rx="5.6" transform="rotate(180 200.45 176.1)"/><rect x="274.9" y="176.1" width="55.9" height="43.65" rx="5.6" transform="rotate(180 274.9 176.1)"/><rect x="349.35" y="176.1" width="55.9" height="43.65" rx="5.6" transform="rotate(180 349.35 176.1)"/></g><g opacity=".3" fill="#4D8DFF"><rect x="126.05" y="251.1" width="55.9" height="43.65" rx="5.6" transform="rotate(180 126.05 251.1)"/><rect x="200.45" y="251.1" width="55.9" height="43.65" rx="5.6" transform="rotate(180 200.45 251.1)"/><rect x="274.9" y="251.1" width="55.9" height="43.65" rx="5.6" transform="rotate(180 274.9 251.1)"/><rect x="349.35" y="251.1" width="55.9" height="43.65" rx="5.6" transform="rotate(180 349.35 251.1)"/></g><rect x="282" y="93.95" width="55.9" height="43.65" rx="5.6" transform="rotate(180 282 93.95)" fill="#4D8DFF"/><rect x="282" y="244" width="55.9" height="43.65" rx="5.6" transform="rotate(180 282 244)" fill="#FF4E4A"/><rect x="133.1" y="169" width="55.9" height="43.65" rx="5.6" transform="rotate(180 133.1 169)" fill="#FFC84D"/><path d="M416.1 148.75c-1.7 10.9-5 70-3.65 83.5s-65 17.6-56.15 2.55c8.85-15.05 2.55-65 2.55-65l57.25-21.05z" fill="#FFAD69"/><path d="M411.5 150.45l-52.65 19.25a273.484 273.484 0 011.4 49.65c21.7-8.95 16.9-27.15 16.9-36.95 0-8.9 34.4-30.25 34.35-31.95zm-69.4 2.25l-8.2 17.5 10 4.05-1.8-21.55z" fill="#D88344"/><path d="M341.95 146.9c-5 33.65-13.2 67.2 27.6 61.65 40.8-5.55 47.1-57.75 47-67.65-.65-52.6-65-60.1-74.6 6z" fill="#FFAD69"/><path d="M421.5 110.1a15.55 15.55 0 005.35-4.55l-2.1-1.4a11.346 11.346 0 01-5 3.8 6.816 6.816 0 000-1.05c0-13.6-63.3-9.7-73.75 2.45-6.2 7.2.4 9.1 11.1 8.75a5 5 0 00-1.7 2.4c-7.05 34.55 26.25 68.55 30 71.45h27.2s28.5-69.15 8.9-81.85z" fill="#232323"/><path d="M505.5 391.5c-3.6-16.05-22.35-85.5-37.25-118.8l-38.05 8.1s24.55 82.1 37.6 112.75c-3.05 16.5-18.45 93.25-27.95 114.7-4.2 10 11.7 13.85 15.55 9.05 3.85-4.8 47.55-92.6 50-120v-1.65c.249-1.37.283-2.77.1-4.15z" fill="#FFAD69"/><path d="M448.35 238.85c20 15.65 50.95 82.2 50.95 82.2l-65.5 17s-38.1-140.4 14.55-99.2z" fill="#E5AA33"/><path d="M479.75 500.35a223.231 223.231 0 01-34.5 25c-43.25 26.15-96.85 42-152.65 55-.05-.649-.05-1.301 0-1.95 1.8-30.95 5-66.3 10-88.75l143.05 2.85 33.8.7c0 1.7.3 4.1.3 7.15z" fill="#232323"/><path d="M400.45 222.9c39.25 1.3 52.55 14.55 59.3 37.5 7.7 26 21.25 183.25 21.25 235.75 0 0-117.55 8.35-182.65-2.35 20.4-68.95 22.6-192.9 23.05-230 .3-27.55 29.25-42.55 79.05-40.9z" fill="#FFC84D"/><path fill-rule="evenodd" clip-rule="evenodd" d="M405.3 249.9a3.7 3.7 0 003 1.5l.6-.2a3.75 3.75 0 003-2.3l5.7-14.2a3.802 3.802 0 00-3.5-5h-16.35a3.75 3.75 0 00-3 6l10.55 14.2zm-8.8-17a1.25 1.25 0 011.15-.7h16.3a1.25 1.25 0 011.05.55c.225.368.225.832 0 1.2l-5.7 14.15a1.2 1.2 0 01-1 .8 1.249 1.249 0 01-1.15-.5l-10.65-14.2a1.2 1.2 0 010-1.3z" fill="#fff"/><path d="M321.25 272.95c-.3 18.15-1 47.1-2.95 79.45 16.65-20 33-43.65 33.95-61.4 1.35-24.4-12.5-25.9-31-18.05z" fill="#E5AA33"/><path d="M343.4 281.4l-20-33.25s-55 39.65-84.55 64.2c-14.6-25.7-39.55-72.25-45-90a59.996 59.996 0 006.35-17.5.692.692 0 000-.35v-.65c.022-.3.022-.6 0-.9v-1.7c0-8.05-3.35-13-1.9-23.2 1-7.15-7.15-4.7-8.75 0l-.65 4.2c-2.05-5-14.4-34.35-19.1-35-4.7-.65-1.75 7.25 1.15 15 1.25 3.45 2.2 6.15 3 8.55-6.9 1.6-13 13.4-13.95 18.35-.95 4.95 11.55 32.55 15 37.55.267.334.588.621.95.85 2.55 14.7 25 100.9 40.4 121.5 9.7 12.75 22.1 11.75 29.35 5 17.8-11.35 72.5-48.95 97.7-72.65z" fill="#FFAD69"/><path d="M377.15 248.15c-2 36.7-70 99.65-70 99.65l-37.9-62s111.6-104.4 107.9-37.65z" fill="#FFC84D"/><path d="M356.15 157.3c-1.5 8.8-3.7 17.55 4.55 16.9 8.25-.65 10.35-14.35 10.5-16.95.7-14-12.1-17.35-15.05.05z" fill="#FFAD69"/></svg>