<svg width="520" height="574" fill="none" xmlns="http://www.w3.org/2000/svg"><mask id="mask0" maskUnits="userSpaceOnUse" x="0" y="62" width="520" height="512"><path fill-rule="evenodd" clip-rule="evenodd" d="M.001 62.301h519.784V573.31H.001V62.301z" fill="#fff"/></mask><g mask="url(#mask0)"><path fill-rule="evenodd" clip-rule="evenodd" d="M456.451 550.18c-13.45 8.1-29.1 13.95-46.35 17.75-11.45 2.5-23.65 4.15-36.35 4.85-46.7 2.85-100.4-5.9-152.15-23.4-11.6-3.9-23.1-8.25-34.4-13.05-84.15-35.4-157.3-93.2-177.8-160.2-37.45-122.3 42.95-210.25 136.05-290.95 37.75-32.75 86.95-28.05 137.85-.4 11.9 6.45 23.85 14.15 35.8 22.9 44.85 32.95 89.25 80.9 126.75 134.2 73.6 104.65 116.2 244.85 10.6 308.3z" fill="#FDE6D6"/></g><path fill-rule="evenodd" clip-rule="evenodd" d="M417.217 155.935c-8.685-17.51-11.865-39.67 5.55-46.805 19.45-7.965 50.44 4.915 59.46 34.14 5.765 18.675 3.785 44.745-12.145 54.765-13.63 8.58-42.21-20.625-52.865-42.1z" fill="#E8E5EA"/><path fill-rule="evenodd" clip-rule="evenodd" d="M141.485 66.843h-.045c-3.345-.23-6.7-.356-9.96-.376a.622.622 0 01-.625-.624.628.628 0 01.625-.626h.005c3.29.02 6.67.145 10.045.376a.63.63 0 01.58.67c-.025.33-.3.58-.625.58zm-29.97.96a.626.626 0 01-.09-1.245c3.23-.47 6.6-.82 10.005-1.046.39-.064.645.24.665.585a.618.618 0 01-.58.66c-3.375.225-6.71.575-9.91 1.035a.551.551 0 01-.09.01zm49.84 1.514a.633.633 0 01-.11-.01c-3.285-.59-6.605-1.09-9.87-1.5a.625.625 0 01-.545-.7c.045-.34.33-.57.7-.54 3.29.41 6.63.92 9.935 1.51.335.06.565.386.505.725a.63.63 0 01-.615.515zm-69.33 3a.624.624 0 01-.595-.44.618.618 0 01.41-.78c3.165-1 6.425-1.89 9.695-2.654a.624.624 0 01.285 1.215 134.38 134.38 0 00-9.605 2.63.628.628 0 01-.19.03zm88.87 1.38a.621.621 0 01-.165-.02 230.05 230.05 0 00-9.695-2.4.626.626 0 01-.475-.75.61.61 0 01.745-.47c3.205.72 6.485 1.53 9.755 2.41a.626.626 0 01-.165 1.23zm19.135 5.95c-.07 0-.14-.01-.21-.035a269.882 269.882 0 00-9.485-3.144.622.622 0 01-.41-.78c.1-.33.455-.52.78-.41 3.175.984 6.385 2.05 9.53 3.154a.624.624 0 01-.205 1.215zm-126.52.195a.626.626 0 01-.28-1.185c2.945-1.5 6.025-2.905 9.15-4.17.31-.14.68.026.81.346a.626.626 0 01-.345.814c-3.09 1.25-6.135 2.64-9.05 4.125a.648.648 0 01-.285.07zm145.2 7.05a.631.631 0 01-.245-.05c-3.06-1.3-6.175-2.57-9.265-3.764a.628.628 0 01-.355-.81.64.64 0 01.81-.356c3.1 1.2 6.23 2.475 9.3 3.78.32.136.465.5.335.82a.638.638 0 01-.58.38zm-162.1 3.606c-.19 0-.37-.08-.495-.24a.628.628 0 01.115-.88c2.625-2.02 5.4-3.96 8.245-5.755a.633.633 0 01.865.194.622.622 0 01-.195.86 108.729 108.729 0 00-8.155 5.695.619.619 0 01-.38.126zm180.31 4.754a.616.616 0 01-.275-.064 358.23 358.23 0 00-9.03-4.3.63.63 0 01-.305-.83.626.626 0 01.83-.31c2.99 1.374 6.04 2.83 9.06 4.314.31.156.435.53.285.84a.635.635 0 01-.565.35zm-194.915 8.881a.602.602 0 01-.415-.16.62.62 0 01-.05-.88 107.15 107.15 0 017.02-7.2.619.619 0 01.88.025.62.62 0 01-.03.884 110.996 110.996 0 00-6.94 7.121c-.12.14-.29.21-.465.21zm212.65.45a.618.618 0 01-.305-.08 397.839 397.839 0 00-8.79-4.77.628.628 0 01-.265-.846.63.63 0 01.845-.264 410.57 410.57 0 018.82 4.79.625.625 0 01-.305 1.17zm17.25 10.21a.627.627 0 01-.33-.095 425.146 425.146 0 00-8.545-5.195.618.618 0 01-.22-.855c.17-.305.555-.4.855-.22a418.91 418.91 0 018.575 5.21.624.624 0 01-.335 1.155zm-241.785 5.42a.63.63 0 01-.535-.955 121.004 121.004 0 015.62-8.345c.21-.275.6-.33.875-.13.28.205.335.595.13.87a120.307 120.307 0 00-5.56 8.26.612.612 0 01-.53.3zm258.535 5.59a.646.646 0 01-.355-.11 440.634 440.634 0 00-8.3-5.595.623.623 0 01-.18-.865.636.636 0 01.865-.18 450.474 450.474 0 018.32 5.605c.29.2.36.59.165.87a.641.641 0 01-.515.275zm16.205 11.725c-.13 0-.26-.04-.375-.125-2.68-2.025-5.38-4.03-8.03-5.95a.625.625 0 11.735-1.01c2.655 1.92 5.365 3.93 8.05 5.965.275.205.325.6.12.875a.632.632 0 01-.5.245zm-283.845.495a.68.68 0 01-.24-.045.626.626 0 01-.335-.82c1.31-3.12 2.735-6.19 4.23-9.12a.619.619 0 01.84-.275c.31.155.43.535.275.84a135.957 135.957 0 00-4.195 9.04c-.1.24-.33.38-.575.38zm299.55 11.965a.64.64 0 01-.4-.14 442.04 442.04 0 00-7.775-6.315.621.621 0 01-.1-.875c.22-.27.61-.31.875-.105 2.65 2.1 5.275 4.23 7.8 6.33.265.22.305.615.085.88a.628.628 0 01-.485.225zm-306.085 6.95a.634.634 0 01-.17-.02.63.63 0 01-.435-.775c.91-3.255 1.91-6.485 2.98-9.595.115-.325.475-.51.795-.39.325.115.5.47.39.795a165.518 165.518 0 00-2.96 9.53.624.624 0 01-.6.455zm321.255 6.23a.61.61 0 01-.42-.165 452.141 452.141 0 00-7.505-6.67.624.624 0 01.82-.94c2.525 2.19 5.05 4.44 7.525 6.685a.625.625 0 01-.42 1.09zM10.17 176.493a.62.62 0 01-.615-.73c.555-3.325 1.195-6.64 1.9-9.86a.636.636 0 01.745-.48c.335.075.55.41.475.745-.7 3.2-1.335 6.5-1.89 9.8a.627.627 0 01-.615.525zm340.08.495c-.16 0-.32-.06-.44-.185a446.448 446.448 0 00-7.17-6.98.625.625 0 01.86-.905c2.4 2.285 4.82 4.64 7.19 7a.625.625 0 010 .885.605.605 0 01-.44.185zm13.84 14.49a.623.623 0 01-.46-.205 415.273 415.273 0 00-6.825-7.32.625.625 0 01.905-.86 383.872 383.872 0 016.845 7.34.615.615 0 01-.045.88.602.602 0 01-.42.165zm-356.335 4.89h-.05a.629.629 0 01-.575-.67c.265-3.37.6-6.735.995-9.995.04-.34.32-.57.695-.545.345.04.585.35.545.695-.39 3.245-.725 6.59-.99 9.94a.618.618 0 01-.62.575zm369.435 10.275c-.18 0-.36-.08-.485-.23a379.065 379.065 0 00-6.44-7.655.62.62 0 01.07-.88.62.62 0 01.88.065c2.2 2.545 4.375 5.13 6.46 7.68a.622.622 0 01-.485 1.02zm-370.245 9.74a.633.633 0 01-.625-.63c.015-3.355.09-6.73.22-10.035.015-.34.28-.625.65-.6a.626.626 0 01.6.65c-.13 3.29-.205 6.65-.22 9.99 0 .345-.28.625-.625.625zm382.5 6.115a.61.61 0 01-.505-.255 351.052 351.052 0 00-6.005-8 .629.629 0 01.115-.88c.27-.21.66-.165.875.115 2.03 2.62 4.055 5.325 6.025 8.03.2.28.14.67-.135.87a.616.616 0 01-.37.12zM7.51 236.413a.629.629 0 01-.625-.59c-.2-3.39-.35-6.77-.44-10.03a.626.626 0 01.605-.645h.02c.335 0 .615.27.625.61.09 3.25.24 6.61.44 9.99a.634.634 0 01-.59.665H7.51zm393.21 2.645c-.205 0-.41-.1-.53-.29a303.028 303.028 0 00-5.495-8.35.631.631 0 01.165-.87.628.628 0 01.87.165c1.89 2.775 3.75 5.6 5.515 8.385.185.295.1.68-.19.865a.631.631 0 01-.335.095zm10.12 17.29a.63.63 0 01-.55-.33c-1.56-2.9-3.205-5.83-4.895-8.715a.634.634 0 01.225-.855.62.62 0 01.855.225 272.88 272.88 0 014.915 8.755.621.621 0 01-.55.92zm-401.565.025a.623.623 0 01-.62-.555c-.395-3.365-.735-6.73-1.025-9.98a.627.627 0 01.565-.68c.405-.035.65.225.68.565.285 3.245.63 6.595 1.02 9.955.04.34-.205.65-.55.69-.025.005-.045.005-.07.005zm410.31 17.99c-.24 0-.47-.14-.575-.375a232.84 232.84 0 00-4.17-9.075.626.626 0 011.125-.55c1.455 3 2.865 6.065 4.195 9.125a.632.632 0 01-.325.825.718.718 0 01-.25.05zm-407.495 1.85c-.3 0-.565-.22-.615-.525-.565-3.345-1.08-6.68-1.535-9.915-.05-.34.19-.66.53-.705.32-.055.655.185.705.53.455 3.225.97 6.55 1.53 9.885a.623.623 0 01-.615.73zm414.555 16.88a.621.621 0 01-.595-.43c-.995-3.11-2.1-6.275-3.29-9.42a.623.623 0 01.365-.805c.32-.14.68.035.805.36 1.2 3.165 2.31 6.355 3.31 9.48a.628.628 0 01-.405.79.641.641 0 01-.19.025zm-410.78 2.795c-.29 0-.545-.2-.61-.495-.7-3.24-1.375-6.55-2-9.83a.618.618 0 01.495-.73c.33-.09.665.155.73.495.625 3.27 1.295 6.57 1.995 9.805a.619.619 0 01-.61.755zm415.78 16.58a.625.625 0 01-.61-.51c-.62-3.185-1.36-6.455-2.205-9.72a.624.624 0 111.21-.31c.85 3.285 1.6 6.58 2.22 9.795a.624.624 0 01-.495.73.493.493 0 01-.12.015zM20.52 315.373c-.28 0-.53-.19-.605-.47-.845-3.23-1.66-6.475-2.435-9.725a.624.624 0 01.46-.755c.33-.08.675.125.755.46a491.3 491.3 0 002.43 9.705.628.628 0 01-.445.765c-.055.01-.11.02-.16.02zm413.6 16.935a.63.63 0 01-.625-.595c-.17-3.265-.465-6.605-.885-9.92a.62.62 0 01.54-.695c.375-.03.655.2.7.54.42 3.345.725 6.715.895 10.01a.626.626 0 01-.59.66h-.035zm-407.975 2.8a.624.624 0 01-.595-.44l-.15-.485a451.034 451.034 0 01-2.84-9.61.621.621 0 01.43-.77c.345-.09.68.1.77.43.91 3.19 1.865 6.42 2.84 9.59l.14.475a.62.62 0 01-.41.78.597.597 0 01-.185.03zm407.65 17.2h-.04a.627.627 0 01-.58-.67c.23-3.27.39-6.62.465-9.96.005-.345.25-.595.64-.61.34.005.615.29.61.64-.075 3.36-.235 6.73-.47 10.02-.02.33-.3.58-.625.58zm-401.455 1.84c-.255 0-.5-.16-.59-.42a661.543 661.543 0 01-3.175-9.505.625.625 0 011.19-.385c1.035 3.17 2.09 6.335 3.17 9.485a.632.632 0 01-.39.795.727.727 0 01-.205.03zm399 18.01c-.035 0-.07-.005-.11-.01a.63.63 0 01-.505-.725 190.64 190.64 0 001.49-9.86c.04-.345.37-.59.695-.545a.629.629 0 01.545.7c-.415 3.35-.92 6.685-1.5 9.92a.626.626 0 01-.615.52zm-392.225.81a.619.619 0 01-.58-.406 651.395 651.395 0 01-3.47-9.384.628.628 0 01.375-.805c.33-.11.68.055.8.38 1.13 3.135 2.285 6.26 3.46 9.365a.625.625 0 01-.36.805.602.602 0 01-.225.045zm7.4 18.62a.622.622 0 01-.575-.385 571.802 571.802 0 01-3.78-9.29.621.621 0 01.35-.81c.31-.125.68.025.81.345a618.757 618.757 0 003.77 9.275.617.617 0 01-.335.815.59.59 0 01-.24.05zm380.18.015a.625.625 0 01-.595-.805c.95-3.16 1.825-6.4 2.59-9.62a.628.628 0 01.755-.465c.335.085.545.42.465.755a172.903 172.903 0 01-2.615 9.69.625.625 0 01-.6.445zm-372.16 18.35a.621.621 0 01-.565-.365 589.046 589.046 0 01-4.1-9.155.633.633 0 01.325-.825.633.633 0 01.825.325c1.34 3.07 2.7 6.115 4.085 9.135a.628.628 0 01-.305.83.615.615 0 01-.265.055zm365.25.415a.624.624 0 01-.575-.875c1.33-3.02 2.58-6.13 3.73-9.245.12-.32.475-.49.805-.37.32.12.485.48.365.805-1.155 3.14-2.42 6.27-3.755 9.31a.624.624 0 01-.57.375zM63.22 428.008a.628.628 0 01-.56-.34 579.399 579.399 0 01-4.435-9 .627.627 0 011.13-.545 554.91 554.91 0 004.42 8.98.623.623 0 01-.555.905zm347.425.16a.623.623 0 01-.54-.94 164.171 164.171 0 004.825-8.745c.16-.31.53-.43.84-.27.31.16.43.535.275.84a166.694 166.694 0 01-4.865 8.81.624.624 0 01-.535.305zm-11.16 16.6a.64.64 0 01-.38-.125.632.632 0 01-.12-.875 180.35 180.35 0 005.795-8.11.627.627 0 01.87-.17c.285.195.36.585.165.87-1.85 2.755-3.81 5.5-5.83 8.165a.632.632 0 01-.5.245zm-326.88.945a.622.622 0 01-.545-.32 473.47 473.47 0 01-4.79-8.815.624.624 0 01.255-.845.634.634 0 01.845.26c1.585 2.98 3.19 5.94 4.78 8.79a.624.624 0 01-.545.93zm313.99 14.345a.623.623 0 01-.455-1.05c2.28-2.445 4.51-4.96 6.625-7.465a.635.635 0 01.88-.075c.265.225.3.62.075.885a210.18 210.18 0 01-6.665 7.51.632.632 0 01-.46.195zm-303.84 2.93a.63.63 0 01-.53-.295 464.835 464.835 0 01-5.185-8.59.633.633 0 01.225-.86.628.628 0 01.855.225c1.7 2.89 3.435 5.77 5.17 8.565.18.295.09.68-.205.86a.603.603 0 01-.33.095zm289.535 11.065a.624.624 0 01-.42-1.09c2.51-2.25 4.96-4.54 7.295-6.82a.628.628 0 01.88.01.62.62 0 01-.01.885 237.372 237.372 0 01-7.33 6.855.636.636 0 01-.415.16zm-278.535 5.685a.623.623 0 01-.515-.27 350.078 350.078 0 01-5.615-8.32.62.62 0 01.18-.865.63.63 0 01.865.185c1.83 2.795 3.715 5.58 5.595 8.285a.62.62 0 01-.155.87.625.625 0 01-.355.115zm263.105 7.08a.616.616 0 01-.495-.245.622.622 0 01.115-.875 284.6 284.6 0 007.82-6.22.615.615 0 01.875.08c.22.27.185.66-.08.88a269.195 269.195 0 01-7.855 6.25.614.614 0 01-.38.13zm-251.17 9.005a.632.632 0 01-.49-.235 344.664 344.664 0 01-6.11-7.97.629.629 0 01.13-.875.64.64 0 01.88.13 306.846 306.846 0 006.08 7.935.627.627 0 01-.49 1.015zm234.885 2.65c-.2 0-.395-.1-.52-.28a.622.622 0 01.175-.865c2.78-1.865 5.545-3.78 8.22-5.69a.62.62 0 01.87.145c.2.28.14.675-.14.875a351.763 351.763 0 01-8.255 5.71.637.637 0 01-.35.105zm-16.935 10.69a.633.633 0 01-.54-.305.63.63 0 01.22-.86c2.91-1.735 5.78-3.49 8.525-5.225a.638.638 0 01.865.195c.18.295.095.68-.195.865a422.99 422.99 0 01-8.555 5.24.62.62 0 01-.32.09zm-204.94 1.89a.626.626 0 01-.455-.2 255.588 255.588 0 01-6.67-7.51.625.625 0 01.95-.81 260.274 260.274 0 006.635 7.47.625.625 0 01-.46 1.05zm187.505 7.98a.623.623 0 01-.55-.325.63.63 0 01.25-.85c2.95-1.59 5.87-3.2 8.76-4.835a.63.63 0 01.855.235c.165.3.06.68-.24.855a523.688 523.688 0 01-8.78 4.845.63.63 0 01-.295.075zm-173.265 6.1c-.15 0-.3-.055-.415-.16-2.455-2.2-4.915-4.52-7.305-6.895a.62.62 0 01-.005-.885.623.623 0 01.88-.005 197.443 197.443 0 007.265 6.855.63.63 0 01.045.885.634.634 0 01-.465.205zm155.465 3.085a.618.618 0 01-.56-.345.628.628 0 01.28-.84c3-1.49 5.98-2.99 8.935-4.515a.631.631 0 01.84.27.63.63 0 01-.27.845c-2.96 1.525-5.94 3.03-8.95 4.52a.616.616 0 01-.275.065zm-18.085 8.635a.621.621 0 01-.565-.365.618.618 0 01.305-.825 890.4 890.4 0 009.06-4.255.637.637 0 01.835.295c.15.31.015.685-.295.835a797.714 797.714 0 01-9.08 4.255c-.08.04-.17.06-.26.06zm-121.745.775a.637.637 0 01-.355-.115c-2.675-1.88-5.38-3.91-8.035-6.04a.627.627 0 01-.1-.88.633.633 0 01.88-.095c2.635 2.11 5.315 4.13 7.97 5.99a.627.627 0 01-.36 1.14zm103.505 7.4c-.24 0-.47-.14-.575-.375a.633.633 0 01.325-.825 951.22 951.22 0 009.14-4.04.625.625 0 01.515 1.14c-3.04 1.36-6.09 2.71-9.155 4.045a.626.626 0 01-.25.055zm-86.325 2.845a.62.62 0 01-.28-.065 121.784 121.784 0 01-8.83-4.815.625.625 0 11.645-1.07 123.203 123.203 0 008.74 4.765.626.626 0 01-.275 1.185zm67.86 4.91a.622.622 0 01-.585-.415.621.621 0 01.375-.8 91.229 91.229 0 004.415-1.73c1.605-.68 3.215-1.36 4.82-2.045a.623.623 0 11.495 1.145c-1.61.69-3.22 1.375-4.83 2.055-1.5.63-3.005 1.22-4.475 1.75a.653.653 0 01-.215.04zm-49.185 2.155a.823.823 0 01-.155-.02 96.306 96.306 0 01-9.575-3.09.621.621 0 01-.365-.805.62.62 0 01.805-.36 96.335 96.335 0 009.45 3.045c.335.09.535.43.445.76a.623.623 0 01-.605.47zm29.73 2.38c-.32 0-.59-.24-.625-.56a.631.631 0 01.555-.69 79.288 79.288 0 009.79-1.665.615.615 0 01.75.465.615.615 0 01-.46.75 81.032 81.032 0 01-9.945 1.695c-.025.005-.045.005-.065.005zm-10 .43h-.01a82.027 82.027 0 01-10.025-.825.621.621 0 01-.525-.705c.045-.345.33-.59.705-.53 3.285.475 6.605.745 9.87.81.34.01.62.295.61.64a.622.622 0 01-.625.61z" fill="#D8D5DB"/><mask id="mask1" maskUnits="userSpaceOnUse" x="46" y="82" width="365" height="492"><path fill-rule="evenodd" clip-rule="evenodd" d="M46.75 82.13h363.688v491.18H46.75V82.13z" fill="#fff"/></mask><g mask="url(#mask1)"><path fill-rule="evenodd" clip-rule="evenodd" d="M385.55 494.68c-2.8.75-5.6 2.2-7.85 4.75-1.3 1.5-3 4.3-4.5 7.25-.35-10.1-.7-18.7-1.05-24 .95-.1 1.5-.1 1.5-.1 0-1.2 0-2.4-.05-3.7-.25-24.35-2.9-66.7-6.4-108.9 1.25 2.6 2.45 5 3.6 7.15.05.75.05 1.5.2 2.3 1.85 10.1 11.1 66 13.8 99.7.5 6.05.75 11.35.75 15.55zm22.25-123.2v-.1c-2.9-9.45-12.65-37.6-23.75-65.55l12.3-4.2s-36-64.05-57.05-78.15c-.05-.05-.1-.05-.15-.1-7.4-6.9-18.2-11.4-34.35-13.25-.1-13.35.9-35.85 2.05-53.1 8.3-1.9 12.3-11.65 12.85-13.8 1.15-4.4.1-8.05-2.05-10.4.65-5.45 1.75-16.05 1.45-25.15-.25-8.35-1.6-15.4-5.5-16.25.05-.15.15-.25.2-.35 1.3-4.15-1.15-8.75-1.25-8.95l-2.2 1.2c.6 1.05 1.85 4.35 1.05 6.95-3.7-4.1-15.2-5.75-28.1-5.5-18.05.3-38.75 4.45-44.35 10.95-3.9 4.5-2.75 6.95 1.3 8.05-.6 4.2-.85 7.85-.95 11.2-.6 1.55-1.15 3.15-1.7 4.85-1.45 1-2.85 2.45-3.9 4.7l2.3 1.05c.05-.1.1-.15.15-.25-.6 2.55-1.15 5.15-1.55 8-4.5 31-11.85 61.85 18.9 62.2-.05 3.5-.25 6.9-.6 10.1-.25 2.55-.6 4.95-1.05 7.1-11.7 2.85-20.85 7.35-27.2 13.4-22.6 18.65-51.15 78.55-51.15 78.55l9.6 4.75c-7.1 13.8-14.1 27.9-19.35 39.35-24.3-16.8-67-47.95-79.6-61.6 0-.05-.05-.05-.1-.1.5-5.25-.45-13.75-1.85-18.55 0-.1 0-.2-.05-.35-.1-.25-.2-.4-.25-.6-.1-.3-.2-.65-.3-.9-.25-.65-.45-1.1-.65-1.5-3.35-7.4-8.65-10.3-11.8-20.15-1.65-5.25-5.7-3.1-7.25.4L50 218.83l-3.25 1.45 15.3 34.35c-3.6-1.6-6.75-2.55-8.9-1.8-2.95 1-6.2 15.85-4.8 21.15 1.4 5.25 15.75 22.15 21.1 25.05.4.2.85.35 1.25.4 8.65 12.1 66 80.2 89.05 92 14.3 7.25 25.05 1 28.6-8.3 4.6-7.4 13.05-21.85 22.25-38.55-3 46.5-8.75 98.9-19.6 135.65 1 .15 2.05.3 3.1.45-3.05 15.25-5.3 35.3-6.9 55.65 11.3 4.8 22.8 9.15 34.4 13.05 51.75 17.5 105.45 26.25 152.15 23.4.75-2.3 1.1-4.701 1.05-7.25-.25-10-.55-22.25-.85-34.35 2.5 6.5 5.75 11.85 8.35 13.2 2.75 1.4 15.75-6.55 18.6-11.3 2.8-4.6 4.95-26.7 3.3-32.6-.1-.4-.4-.7-.6-1.05.6-3.3 1.5-10.5 2.5-19.9 3.2-31.701 7-88.65 1.7-108.05z" fill="#D1CDD3"/></g><path fill-rule="evenodd" clip-rule="evenodd" d="M280.106 275.571l-32.595-21.27s-32.395 59.615-48.37 94.495c-24.285-16.815-66.985-47.95-79.59-61.63-.035-.035-.07-.055-.105-.09.495-5.26-.455-13.735-1.84-18.54-.03-.125-.035-.225-.08-.36-.07-.225-.165-.405-.24-.62-.1-.28-.19-.635-.29-.875a41.904 41.904 0 00-.655-1.52c-3.35-7.355-8.66-10.295-11.79-20.115-2.18-6.855-8.465-1.105-7.845 3.84 0 0 .935 3.21 1.99 6.3-4.155-1.98-7.745-3.18-10.165-2.365-2.93.985-6.205 15.855-4.8 21.17 1.38 5.23 15.75 22.14 21.13 25.05.39.21.8.325 1.22.39 8.675 12.115 66.025 80.22 89.08 91.98 14.28 7.285 25.005 1.01 28.59-8.27 10.9-17.695 43.885-75.285 56.355-107.57z" fill="#FFAD69"/><path fill-rule="evenodd" clip-rule="evenodd" d="M284.542 238.945c4.94 24.85-14.92 95.565-14.92 95.565l-60.75-29.815s62.64-131.305 75.67-65.75z" fill="#EA3939"/><path fill-rule="evenodd" clip-rule="evenodd" d="M410.201 565.529c0 .8 0 1.6-.1 2.4-11.45 2.5-23.65 4.15-36.35 4.85-46.7 2.85-100.4-5.9-152.15-23.4 1.8-26.7 4.6-54.55 8.9-73.35l143.1 2.85 11.2.25 21.3.4 1.25.05c1 11.4 2.2 57.55 2.85 85.95z" fill="#232323"/><path fill-rule="evenodd" clip-rule="evenodd" d="M328.468 209.297c39.27 1.295 52.545 14.55 59.315 37.475 7.685 26.03 21.225 183.25 21.225 235.785 0 0-117.52 8.325-182.625-2.345 20.41-68.95 22.62-192.935 23.03-229.87.305-27.715 29.27-42.69 79.055-41.045z" fill="#FF4E4A"/><path fill-rule="evenodd" clip-rule="evenodd" d="M293.873 145.007c-3.87-2.91-24.05-.27-18.235-41.355 2.115-14.99 16.195-4.985 26.16-2.985 9.965 2 3.63 45.08 3.63 45.08l-11.555-.74z" fill="#232323"/><path fill-rule="evenodd" clip-rule="evenodd" d="M344.117 135.166c-1.675 10.89-5.025 69.81-3.63 83.49 1.395 13.685-64.785 17.595-56.13 2.515 8.66-15.08 2.515-65.065 2.515-65.065l57.245-20.94z" fill="#FFAD69"/><path fill-rule="evenodd" clip-rule="evenodd" d="M339.535 136.831l-52.655 19.28s3.555 29.115 1.41 49.61c40.15-3.105 50.455-53.815 51.135-63.58.11-1.84.165-3.615.11-5.31z" fill="#D88344"/><path fill-rule="evenodd" clip-rule="evenodd" d="M269.974 133.313c-4.88 33.635-13.165 67.17 27.605 61.65 40.775-5.52 47.11-57.795 46.99-67.655-.635-52.616-65-60.136-74.595 6.005z" fill="#FFAD69"/><path fill-rule="evenodd" clip-rule="evenodd" d="M348.965 91.41c.05-.13.16-.22.205-.35 1.325-4.124-1.115-8.72-1.22-8.915l-2.2 1.186c.02.04 2.02 3.844 1.04 6.94-8.93-9.865-62.875-5.66-72.47 5.484-12.19 14.161 25.3 7.776 46.425 4.2 2.96 12.371 16.37 32.856 20.235 35.766l11.555.745s6.305-42.886-3.57-45.056z" fill="#232323"/><path fill-rule="evenodd" clip-rule="evenodd" d="M438.988 499.414c2.59-14.39 11.12-102.785 4.215-127.915-.01-.04-.005-.08-.015-.125-4.82-15.73-28.755-83.535-46.085-115.64l-37.345 10.96s31.255 81.57 46.41 110.42c.045.775.045 1.535.195 2.335 2.23 11.9 14.69 87.405 14.55 115.215-2.76.77-5.57 2.22-7.805 4.77-2.845 3.25-7.805 12.584-7.455 16.725.995 11.815 7.56 25.89 12.055 28.215 2.75 1.42 15.71-6.565 18.555-11.27 2.8-4.63 4.96-26.715 3.31-32.605-.11-.405-.38-.73-.585-1.085z" fill="#FFAD69"/><path fill-rule="evenodd" clip-rule="evenodd" d="M374.689 223.486c21.065 14.08 57.025 78.125 57.025 78.125l-64.035 21.875s-48.56-137.14 7.01-100z" fill="#FF4E4A"/><path fill-rule="evenodd" clip-rule="evenodd" d="M304.308 131.647c.13 1.64-.755 3.045-1.985 3.145-1.23.095-2.33-1.15-2.46-2.79-.135-1.635.755-3.045 1.985-3.14 1.225-.1 2.325 1.145 2.46 2.785zm-25.972.689c.13 1.64-.755 3.045-1.985 3.145-1.225.095-2.33-1.15-2.46-2.785-.135-1.64.755-3.05 1.985-3.145 1.225-.1 2.33 1.145 2.46 2.785zm32.358-9.89c-3.475-5.335-9.455-4.065-9.515-4.055l-.55-2.44c.315-.065 7.745-1.64 12.16 5.13l-2.095 1.365zm-39.314 3.115l-2.27-1.04c3.37-7.355 10.945-6.88 11.265-6.865l-.175 2.495c-.235-.015-6.18-.33-8.82 5.41zm24.58 37.056c-1.66 0-2.71-.185-2.75-.195l.455-2.455c.46.085 11.435 1.945 17.55-8.23l2.14 1.29c-5.045 8.39-13.17 9.59-17.395 9.59z" fill="#232323"/><path fill-rule="evenodd" clip-rule="evenodd" d="M276.739 151.222l6.36-21.68 2.395.7-5.405 18.435 8.755-.115.035 2.5-12.14.16z" fill="#D88344"/><path fill-rule="evenodd" clip-rule="evenodd" d="M114.761 284.682l-3.27 1.46-29.35-65.855 3.265-1.46 29.355 65.855z" fill="#232323"/><path fill-rule="evenodd" clip-rule="evenodd" d="M334.23 139.446c-3.685 8.3-8.295 16.33 3.27 17.82 11.565 1.495 16.944-11.49 17.6-14.035 3.495-13.57-13.63-20.105-20.87-3.785z" fill="#FFAD69"/><path fill-rule="evenodd" clip-rule="evenodd" d="M161.226.002H43.572c-4.1 0-7.425 3.32-7.425 7.42v41.895c0 4.1 3.325 7.425 7.425 7.425h7.164l8.08 10.795c1.795 2.4 5.56 1.685 6.355-1.205l2.62-9.59h93.435c4.1 0 7.42-3.325 7.42-7.425V7.422c0-4.1-3.32-7.42-7.42-7.42z" fill="#4D8DFF"/><mask id="mask2" maskUnits="userSpaceOnUse" x="0" y="0" width="520" height="574"><path fill-rule="evenodd" clip-rule="evenodd" d="M0 573.31h519.785V0H0v573.31z" fill="#fff"/></mask><g mask="url(#mask2)" fill-rule="evenodd" clip-rule="evenodd"><path d="M47.705 13.495H151.73v-2.5H47.705v2.5zm0 11.83h68.69v-2.5h-68.69v2.5zm0 11.83h85.86v-2.5h-85.86v2.5z" fill="#fff"/><path d="M133.566 140.193H43.571a7.42 7.42 0 00-7.42 7.42v41.895c0 4.1 3.32 7.425 7.42 7.425h7.165l8.08 10.795c1.794 2.4 5.564 1.685 6.355-1.205l2.62-9.59h65.775c4.1 0 7.42-3.325 7.42-7.425v-41.895a7.42 7.42 0 00-7.42-7.42z" fill="#FF4E4A"/><path d="M47.705 153.685H95.59v-2.5H47.705v2.5zm57.795 0h16.51v-2.5H105.5v2.5zm-57.795 11.83H81.72v-2.5H47.705v2.5zm0 11.83h65.715v-2.5H47.705v2.5z" fill="#fff"/><path d="M103.429 70.058h109.57c4.095 0 7.415 3.325 7.415 7.42v41.9c0 4.095-3.32 7.42-7.415 7.42h-7.17l-8.08 10.8c-1.795 2.395-5.565 1.68-6.35-1.21l-2.625-9.59h-85.345a7.42 7.42 0 01-7.42-7.42v-41.9a7.42 7.42 0 017.42-7.42z" fill="#FFC84D"/><path d="M164.94 83.55h43.92v-2.5h-43.92v2.5zm-51.515 11.835h95.435v-2.5h-95.435v2.5zm48.545 11.83h46.89v-2.5h-46.89v2.5zm-29.395 0h21.465v-2.5h-21.465v2.5zM293.439 276.82c-19.115 0-34.67 15.555-34.67 34.67 0 19.12 15.555 34.675 34.67 34.675 19.12 0 34.675-15.555 34.675-34.675 0-19.115-15.555-34.67-34.675-34.67zm0 71.845c-20.495 0-37.17-16.675-37.17-37.175 0-20.495 16.675-37.17 37.17-37.17 20.5 0 37.175 16.675 37.175 37.17 0 20.5-16.675 37.175-37.175 37.175z" fill="#fff"/></g></svg>