<svg width="603" height="495" fill="none" xmlns="http://www.w3.org/2000/svg"><ellipse rx="233.5" ry="219" transform="matrix(-1 0 0 1 286.5 248)" fill="#FFE5D2"/><path fill-rule="evenodd" clip-rule="evenodd" d="M480.408 343.694c.1-.059.727.771 1.653 2.405.93 1.628 2.087 4.101 3.163 7.293 2.204 6.36 3.588 15.75 2.768 25.991-.814 10.238-3.173 19.226-4.993 25.624-1.862 6.4-3.232 10.285-3.468 10.22-.261-.073.664-4.092 2.192-10.555 1.488-6.462 3.612-15.402 4.408-25.431.8-10.026-.338-19.152-2.167-25.461-1.777-6.34-3.849-9.934-3.556-10.086zm6.288-51.244c.117-.052.874 1.339 2.139 3.905a361.604 361.604 0 015.138 10.971c4.165 9.331 9.771 22.393 13.837 37.558 1.999 7.586 3.362 14.96 4.052 21.733.695 6.771.766 12.923.418 18.057-.337 5.138-.983 9.26-1.605 12.062-.616 2.809-1.103 4.321-1.213 4.297-.345-.067 1.177-6.249 1.501-16.42.402-10.15-.927-24.252-4.956-39.247-4.02-14.999-9.397-28.069-13.246-37.516l-4.59-11.198c-1.06-2.656-1.593-4.149-1.475-4.202zm-232.705 60.145c.216.233-1.9 2.258-4.646 6.017-.682.945-1.422 1.977-2.115 3.157-.757 1.137-1.416 2.441-2.15 3.787-1.363 2.745-2.657 5.864-3.656 9.259-.954 3.408-1.511 6.74-1.811 9.792-.091 1.53-.224 2.987-.186 4.352-.038 1.37.04 2.641.116 3.805.333 4.648 1.053 7.492.746 7.575-.186.064-1.37-2.683-2.057-7.44-.165-1.188-.322-2.494-.352-3.907-.106-1.412-.03-2.921.017-4.511.215-3.17.742-6.646 1.735-10.183a50.28 50.28 0 013.93-9.55c.801-1.373 1.536-2.692 2.375-3.83.773-1.182 1.6-2.204 2.369-3.122 3.103-3.661 5.563-5.354 5.685-5.201zm4.966 16.406c.157.251-1.022 1.155-2.562 2.886-.78.854-1.602 1.962-2.41 3.246a25.26 25.26 0 00-2.098 4.454 25.11 25.11 0 00-1.084 4.806c-.153 1.51-.187 2.889-.098 4.046.15 2.314.523 3.757.245 3.858-.2.084-1.039-1.236-1.552-3.682-.268-1.22-.378-2.713-.309-4.367a20.973 20.973 0 011.034-5.271 20.96 20.96 0 012.425-4.79c.961-1.346 1.966-2.453 2.924-3.247 1.907-1.611 3.379-2.131 3.485-1.939zm-68.942-152.894c.096-.084.931.74 2.364 2.313a36.132 36.132 0 012.498 2.966c.919 1.198 2.025 2.528 3.062 4.126l1.682 2.476c.578.867 1.102 1.815 1.686 2.773 1.195 1.903 2.267 4.05 3.432 6.29 2.2 4.545 4.304 9.702 5.98 15.293 1.622 5.607 2.651 11.085 3.266 16.098.235 2.517.499 4.904.526 7.151.028 1.123.102 2.205.085 3.249l-.069 2.994c-.005 1.91-.213 3.627-.335 5.135-.11 1.51-.3 2.801-.491 3.85-.35 2.102-.604 3.25-.732 3.232-.328-.044.291-4.702.239-12.231l-.051-2.953c-.022-1.026-.131-2.091-.192-3.194-.092-2.209-.41-4.551-.685-7.019-.7-4.915-1.759-10.277-3.351-15.78-1.646-5.488-3.66-10.568-5.737-15.075-1.104-2.221-2.107-4.361-3.225-6.266-.547-.959-1.034-1.912-1.57-2.785-.542-.871-1.061-1.707-1.556-2.506-4.035-6.348-7.08-9.92-6.826-10.137zm21.129 8.772c.159-.142 2.302 1.869 5.028 5.746 1.372 1.93 2.817 4.362 4.224 7.166a64.237 64.237 0 013.71 9.505 64.34 64.34 0 012.033 10.003c.337 3.122.442 5.95.334 8.319-.189 4.739-.899 7.596-1.108 7.564-.3-.037-.06-2.93-.212-7.566-.061-2.316-.299-5.067-.718-8.092a77.742 77.742 0 00-2.118-9.697 77.436 77.436 0 00-3.474-9.295c-1.286-2.77-2.576-5.208-3.779-7.187-2.384-3.974-4.151-6.271-3.92-6.466z" fill="#fff"/><path fill-rule="evenodd" clip-rule="evenodd" d="M137.156 378.076l-1.624-3.327-45.22 34.665 19.728 32.066 45.013-38.079-17.897-25.325z" fill="#FF7B5B"/><path fill-rule="evenodd" clip-rule="evenodd" d="M92.207 410.156l17.331 30.07 1.108-.496-15.433-28.116-3.006-1.458z" fill="#D7D4D4"/><path fill-rule="evenodd" clip-rule="evenodd" d="M136.263 377.418l-44.056 32.737s.185.703 1.278 1.136c1.095.434 1.728.323 1.728.323l46.316-31.805s-2.67-.623-3.638-1.348c-.97-.727-1.628-1.043-1.628-1.043z" fill="#F5F3F3"/><path fill-rule="evenodd" clip-rule="evenodd" d="M142.662 378.526l-48.277 32.353 15.68 29.815 2.526 4.129 48.278-35.85s-5.085-7.615-8.138-12.212c-3.053-4.598-9.046-15.44-9.372-16.135-.328-.695-.697-2.1-.697-2.1z" fill="#FF7B5B"/><path fill-rule="evenodd" clip-rule="evenodd" d="M540.786 155.166l1.364-2.795 37.972 29.11-16.566 26.927-37.799-31.977 15.029-21.265z" fill="#775298"/><path fill-rule="evenodd" clip-rule="evenodd" d="M578.531 182.103l-14.552 25.251-.932-.415 12.961-23.611 2.523-1.225z" fill="#D7D4D4"/><path fill-rule="evenodd" clip-rule="evenodd" d="M541.537 154.612l36.995 27.491s-.157.59-1.073.954c-.92.364-1.452.271-1.452.271l-38.894-26.708s2.243-.522 3.056-1.132c.814-.61 1.368-.876 1.368-.876z" fill="#F5F3F3"/><path fill-rule="evenodd" clip-rule="evenodd" d="M536.163 155.544l40.539 27.167-13.165 25.037-2.122 3.466-40.542-30.104s4.271-6.395 6.834-10.255c2.566-3.861 7.597-12.966 7.87-13.549.275-.582.586-1.762.586-1.762z" fill="#775298"/><path fill-rule="evenodd" clip-rule="evenodd" d="M83.17 102.772s-2.868 1.991-1.435 5.311c1.434 3.319 7.72 13.165 16.21 12.833.348-.012-10.696-18.144-10.696-18.144h-4.08z" fill="#FF7B5B"/><path fill-rule="evenodd" clip-rule="evenodd" d="M70.18 284.294s-10.617-9.517-14.017-7.812c-4.153 2.083-27.924 25.451-26.995 36.46.382 4.509 5.613.646 14.935-9.056 9.325-9.701 21.066-5.543 21.066-5.543l5.011-14.049zm25.797 16.049l-12.818-7.715s-33.225 31.252-28.034 35.419c3.937 3.16 6.252.326 15.575-9.376 9.322-9.699 21.133-4.122 21.133-4.122l4.144-14.206z" fill="#775298"/><path fill-rule="evenodd" clip-rule="evenodd" d="M174.276 197.526l2.404 34.245-53.358-13.946 50.954-20.299z" fill="#F3A683"/><path fill-rule="evenodd" clip-rule="evenodd" d="M123.322 219.003s46.673 2.952 52.888.871c0 0 9.121 89.903-7.109 99.602-16.23 9.702-52.652-4.504-52.652-4.504l9.834-19.401 21.203-1.386V259.54l-1.521.346-22.643-40.883z" fill="#112129"/><path fill-rule="evenodd" clip-rule="evenodd" d="M64.817 280.327s-11.74 4.851-7.941 16.631c0 0 40.074 31.527 59.573 24.251 10.925-4.076 22.66-35.174 30.87-61.743l28.891-39.592s-13.626.684-18.171.666c-8.688-.033-34.716-1.537-34.716-1.537s-13.596 71.372-18.441 73.104c-4.844 1.731-40.065-11.78-40.065-11.78z" fill="#22343D"/><path fill-rule="evenodd" clip-rule="evenodd" d="M134.198 129.487s27.972-26.332 32.806-33.262c4.833-6.93 15.195-30.142 27.968-39.842l-6.214-13.166s3.8-2.078 6.214 3.464c0 0 8.978-18.014 11.05-17.67 2.074.347-4.142 13.86-4.142 13.86s8.635-12.474 11.051-12.126c2.414.346-6.216 14.021-6.216 14.021s9.667-11.25 11.049-9.864c1.381 1.386-7.597 9.864-7.597 9.864s9.668-5.569 10.705-3.733c1.036 1.838-9.669 6.687-9.669 6.687s-1.036 7.97-7.596 11.433c0 0-12.99 35.213-24.731 46.646l-37.716 39.328-6.962-15.64zm-33.389 13.647s-26.504 27.817-33.455 32.601c-6.952 4.783-30.182 14.963-39.969 27.69l-13.063-6.359s-2.107 3.79 3.395 6.266c0 0-18.04 8.84-17.713 10.923.325 2.082 13.85-4.028 13.85-4.028s-12.512 8.547-12.189 10.974c.324 2.427 14.032-6.106 14.032-6.106s-11.302 9.594-9.933 10.992c1.366 1.399 9.902-7.527 9.902-7.527s-5.641 9.647-3.819 10.703c1.82 1.056 6.754-9.638 6.754-9.638s7.95-.962 11.466-7.513c0 0 33.243-13.271 44.749-24.943l41.368-29.41-15.375-14.625z" fill="#FFC6B2"/><path fill-rule="evenodd" clip-rule="evenodd" d="M110.745 132.047L97.34 145.213l3.399 14.842s13.207 31.81 15.203 39.571c3.103 12.067-1.916 30.467-1.916 30.467s22.388-1.866 42.76-2.558c20.37-.693 27.034-7.278 27.034-7.278s-17.662-59.021-29.856-75.52c-12.196-16.496-16.632-21.66-16.632-21.66l-17.955 3.938-8.632 5.032z" fill="#fff"/><path fill-rule="evenodd" clip-rule="evenodd" d="M150.085 142.792l13.966-8.954s2.134-9.593-14.709-20.908l-19.751 12.417 20.494 17.445zm-49.92 1.38c-7.657 1.078-21.65 20.548-23.21 20.512 0 0 9.847 16.124 17.648 16.647 0 0 34.329-41.208 5.562-37.159z" fill="#fff"/><path fill-rule="evenodd" clip-rule="evenodd" d="M127.194 131.503s-11.13-8.344-10.744-11.67c.098-.838 1.64-2.198 2.041-3.405 2.158-6.496-8.246-23.233-14.639-26.76-5.03-2.775-2.825-3.02-13.409 3.29-10.583 6.31-4.553 17.222.173 22.866 4.468 5.335 9.585 7.62 14.189 8.006l6.546 14.588 15.843-6.915z" fill="#FFC6B2"/><path fill-rule="evenodd" clip-rule="evenodd" d="M107.111 143.085c-2.105-5.181 1.881-11.707 8.904-14.581 7.025-2.875 14.423-1.005 16.532 4.173 2.104 5.179-4.964 12.965-8.909 14.58-3.945 1.615-14.423 1.006-16.527-4.172zm-16.495-27.261s-3.61-.2-4.01 2.213c-.402 2.415 6.617 2.415 9.224.604l-5.214-2.817z" fill="#FFC6B2"/><path fill-rule="evenodd" clip-rule="evenodd" d="M92.421 118.037c-.685-4.361-5.318-7.604-5.087-11.854 2.22.017 3.646-2.742 2.636-5.101-.398-.926-1.072-1.72-1.502-2.634-.43-.913-.543-2.11.115-2.626.313-.243.735-.286 1.14-.327 3.292-.339 8.932.652 11.962-.475 2.885-1.073 5.976-3.159 5.676-6.704-.263-3.088-2.98-5.591-5.476-7.483-1.43-1.084-5.517-3.92-7.058-3.662-2.354.392-2.924 3.542-3.094 6.18-1.646-1.573-4.075-1.321-5.506-.042-1.431 1.28-2.11 3.313-2.732 5.275-.625 1.964-1.287 4.002-2.699 5.306-1.316 1.216-3.398 2.135-3.125 4.203.325 2.463 3.532 3.339 5.015 5.441-.365-.516-.675 2.774-.464 3.331.633 1.68 2.212 2.792 3.355 4.077 2.432 2.739 3.622 5.497 6.844 7.095z" fill="#FF7B5B"/><path fill-rule="evenodd" clip-rule="evenodd" d="M112.587 108.064l-8.224 4.268s9.879 7.194 8.224-4.268z" fill="#fff"/><path fill-rule="evenodd" clip-rule="evenodd" d="M101.272 109.756c.45.856-.216 2.093-1.486 2.763-1.27.671-2.663.521-3.112-.335-.449-.856.216-2.092 1.485-2.763 1.272-.671 2.664-.521 3.113.335zm12.01-8.231c.449.856-.216 2.093-1.486 2.763-1.27.671-2.663.521-3.113-.335-.448-.856.216-2.093 1.486-2.763 1.271-.671 2.663-.521 3.113.335z" fill="#FFB2A0"/><path fill-rule="evenodd" clip-rule="evenodd" d="M106.846 107.761c-.038-.048.115-.251.471-.508.34-.263.931-.547 1.369-1.021.435-.459.591-1.417-.075-1.552-.691-.235-1.476.56-2.376 1.317l-.662.55c-.203.188-.632.463-1.078.407-.849-.137-1.21-.705-1.536-1.086a7.532 7.532 0 01-1.277-2.478c-.441-1.537-.243-2.529-.137-2.521.148-.007.197.947.758 2.299a8.282 8.282 0 001.32 2.155c.3.366.678.706.947.717.112.006.201-.033.413-.211l.653-.551c.453-.367.846-.739 1.365-1.086.504-.34 1.222-.556 1.866-.336.687.181 1.09.985.971 1.544-.078.569-.36.989-.681 1.296-.677.568-1.283.705-1.665.877-.391.149-.605.241-.646.188z" fill="#FF7B5B"/><path fill-rule="evenodd" clip-rule="evenodd" d="M104.805 123.83s5.247.03 8.093-1.729c0 0-2.408 2.968-7.226 3.736l-.867-2.007z" fill="#FFA192"/><path fill-rule="evenodd" clip-rule="evenodd" d="M107.081 100.224c-.048.26-.781.341-1.557.684-.786.319-1.354.792-1.572.645-.224-.119.146-1.059 1.208-1.508 1.061-.45 1.99-.066 1.921.179zM96.8 106.991c-.199-.148.112-.995.867-1.844.765-.867 1.741-1.156 1.844-.913.11.236-.486.785-1.155 1.547-.68.759-1.342 1.37-1.557 1.21z" fill="#22343D"/><path fill-rule="evenodd" clip-rule="evenodd" d="M92.814 105.683c-.425-.317-.757-1.67.87-3.493 1.642-1.864 3.477-1.536 3.697-1.018.237.509-.375 1.232-1.816 2.871-1.462 1.634-2.29 1.986-2.751 1.64zm8.637-7.183c-.235-.44.024-1.726 2.14-2.62 2.146-.926 3.576.094 3.555.624-.004.528-.812.897-2.697 1.712-1.898.8-2.744.766-2.998.285z" fill="#FF7B5B"/><path fill-rule="evenodd" clip-rule="evenodd" d="M552.766 111.283c.139.137-2.14 2.71-6.869 5.512-4.671 2.798-12.019 5.573-20.472 5.635-8.453.063-15.843-2.602-20.554-5.332-4.768-2.73-7.085-5.27-6.949-5.411.197-.249 2.788 1.893 7.563 4.238 4.729 2.355 11.856 4.692 19.925 4.633 8.071-.061 15.162-2.503 19.857-4.927 4.738-2.416 7.3-4.596 7.499-4.348zm-51.568-3.886c-.129.284-2.652-.766-6.903-1.717-2.119-.502-4.69-.889-7.553-1.246-2.874-.319-6.05-.572-9.405-.812-3.356-.236-6.567-.507-9.485-.869-2.917-.389-5.538-.851-7.697-1.436-4.336-1.136-6.791-2.48-6.705-2.668.112-.287 2.694.598 6.987 1.373 2.142.41 4.726.728 7.604 1.015 2.885.265 6.071.481 9.431.718 3.362.24 6.58.549 9.494.969 2.913.459 5.526.993 7.664 1.675 4.293 1.315 6.664 2.819 6.568 2.998z" fill="#775298"/><mask id="mask0" maskUnits="userSpaceOnUse" x="433" y="35" width="170" height="84"><path fill-rule="evenodd" clip-rule="evenodd" d="M433.032 35.206h169.324v83.235H433.032V35.206z" fill="#fff"/></mask><g mask="url(#mask0)"><path fill-rule="evenodd" clip-rule="evenodd" d="M450.063 52.065c8.059-1.715 16.409-.238 24.535 1.12 8.126 1.359 16.563 2.584 24.508.396 14.344-3.95 25.234-18.491 40.109-18.374 6.125.047 11.898 2.672 17.866 4.06 7.41 1.725 15.129 1.54 22.635 2.77 7.508 1.231 15.263 4.26 19.506 10.595 5.033 7.518 3.653 18.122-1.629 25.467-5.281 7.346-13.74 11.818-22.406 14.352-6.045 1.768-12.485 2.79-17.716 6.306-5.292 3.558-8.747 9.284-13.676 13.33-12.371 10.15-31.624 7.241-44.402-2.388-3.211-2.418-6.187-5.225-9.794-6.995-14.671-7.206-35.772 2.332-48.408-10.777-12.832-13.315-11.004-35.632 8.872-39.862z" fill="#775298"/></g><path fill-rule="evenodd" clip-rule="evenodd" d="M446.037 309.916s13.442 28.909 15.015 23.556c1.568-5.355 1.05-18.211.208-20.047-.846-1.835-6.341-9.944-6.341-9.944l-8.882 6.435z" fill="#FFB2A0"/><path fill-rule="evenodd" clip-rule="evenodd" d="M543.238 76.152c1.244 1.598.413-.119 1.822 2.187 5.853-.205 9.782-5.174 9.782-5.174s9.291.246 9.184-1.419c-.106-1.668-8.907-1.045-8.907-1.045s9.31-2.934 8.799-4.398c-.508-1.464-11.256 3.204-11.256 3.204s10.846-6.754 9.243-7.837c-1.601-1.081-12.036 4.815-12.036 4.815s9.069-7.474 7.71-8.437c-1.357-.964-13.937 8.764-13.937 8.764.183-4.785-3.238-4.618-3.238-4.618l.141 11.685s2.12 1.537 2.693 2.273zM405.522 23.268c-1.989.367-.447-.326-3.028.464-4.238-4.055-3.676-10.428-3.676-10.428s-7.108-6.004-5.93-7.177c1.186-1.176 7.353 5.152 7.353 5.152s-5.018-8.396-3.668-9.151c1.349-.755 6.299 9.895 6.299 9.895S399.229-.253 401.144.005c1.913.257 5.816 11.616 5.816 11.616S405.124-.008 406.774.176c1.653.183 4.625 15.838 4.625 15.838 3.029-3.7 5.475-1.296 5.475-1.296l-7.677 8.472s-2.761-.09-3.675.078zm48.222 48.808c-2.571-.424-8.787 3.721-11.897 10.477-1.741 3.781-2.939 7.623-.941 13.772.941 2.893 2.911 3.255 3.351 4.551.555 1.641-1.285 6.812-1.285 6.812l7.338 2.974c.476-3.553 1.017-7.127 4.625-8.67 1.35-.577 2.795-.943 4.069-1.676 3.438-1.977 5.274-6.302 6.686-9.843 1.054-2.645-5.5-17.337-11.946-18.397z" fill="#FFC6B2"/><path fill-rule="evenodd" clip-rule="evenodd" d="M445.009 172.479l-12.293-4.949s-36.484 67.883-36.332 86.717c.151 18.833 50.109 56.541 50.109 56.541l8.425-7.306s-15.424-26.985-23.669-36.499c-8.246-9.516 13.76-94.504 13.76-94.504z" fill="#FFB2A0"/><path fill-rule="evenodd" clip-rule="evenodd" d="M506.049 249.807s27.095-12.898 21.651-14.037c-5.445-1.134-18.178.429-19.932 1.421-1.756.993-9.364 7.145-9.364 7.145l7.645 5.471z" fill="#FFC6B2"/><path fill-rule="evenodd" clip-rule="evenodd" d="M457.085 171.89l-18.649 6.808s-18.655 82.325-11.533 95.25c7.119 12.93 27.12 4.374 55.605-11.224l23.859-13.068-7.964-5.318s-27.764 5.458-35.561 10.901c0 0 4.069-11.568 9.495-27.896 5.424-16.33 9.166-32.999-15.252-55.453zm-22.955-56.085c0-5.47 1.755-9.426 7.206-9.426 5.452 0 12.988 1.917 12.988 7.388 0 5.473-4.296 14.356-9.75 14.356-5.451 0-10.444-6.846-10.444-12.318z" fill="#FFC6B2"/><path fill-rule="evenodd" clip-rule="evenodd" d="M438.435 105.595s-16.952-18.406-20.343-36.438c-3.392-18.029-9.154-47.286-9.154-47.286l-6.442 1.861s-3.053 39.984 0 46.106c3.05 6.124 17.961 46.891 22.501 57.598l13.438-21.841zm18.213 14.346s1.303-5.726 22.74-13.508c21.436-7.78 61.878-33.002 61.878-33.002l4.035 4.632s-21.974 25.466-34.758 29.933c-12.784 4.468-39.937 22.08-42.73 23.489-4.225 2.133-4.174 4.816-11.165-11.544z" fill="#FFC6B2"/><path fill-rule="evenodd" clip-rule="evenodd" d="M438.435 105.595s-17.223 5.601-17.223 31.896c0 0 .01 36.013 4.07 42.564 0 0 6.599 1.697 14.826 0 8.627-1.779 16.977-8.165 16.977-8.165l13.548-40.809-1.62-19.121-18.421-3.568s5.284 24.776-13.836 14.125c-3.715-2.07 5.467-16.127 5.467-16.127l-3.788-.795z" fill="#22343D"/><path fill-rule="evenodd" clip-rule="evenodd" d="M423.862 126.981l-8.487-17.74s1.217-10.762 16.797-14.619c0 0 1.576 5.425 3.303 7.498 1.726 2.071 6.754 4.276 6.754 4.276l-18.367 20.585zm32.085 7.131l26.987-5.55s4.692-9.754-6.433-21.357c0 0-21.051 1.276-23.775 1.503-2.682.224-.841 2.296-.841 2.296l4.062 23.108zm-30.708 37.171s-25.526 47.351-29.743 55.811c0 0 75.306 34.708 105.875-7.069 0 0-17.389-36.927-44.271-50.986l-11.597-3.484-19.811 5.501" fill="#22343D"/><path fill-rule="evenodd" clip-rule="evenodd" d="M464.702 90.025s2.908-2.917 4.696-.898c1.789 2.02-6.485 4.937-6.485 4.937l1.789-4.039z" fill="#FFC6B2"/><path fill-rule="evenodd" clip-rule="evenodd" d="M517.888 50.236c.028.101-1.095.589-3.239 1.1-2.139.516-5.313.985-9.256 1.066-3.94.078-8.625-.273-13.753-.97-5.133-.683-10.708-1.686-16.573-2.328-5.856-.628-11.487-.743-16.474.065-4.988.795-9.306 2.434-12.606 4.349-3.3 1.929-5.597 4.07-7.007 5.69-1.417 1.621-2.056 2.657-2.2 2.57-.078-.041.348-1.207 1.633-3.025 1.276-1.813 3.529-4.204 6.889-6.367 3.358-2.148 7.82-3.995 13.006-4.919 5.192-.937 10.999-.865 16.957-.224 5.963.652 11.545 1.712 16.618 2.48 5.071.784 9.655 1.264 13.514 1.354 7.737.217 12.42-1.161 12.491-.84z" fill="#775298"/><path fill-rule="evenodd" clip-rule="evenodd" d="M449.895 88.369c-.008.114-.837.195-2.101-.226-.313-.11-.682-.255-1.026-.571a1.677 1.677 0 01-.423-.62 1.403 1.403 0 01.009-1.06c.041-.06.038-.206.118-.209l.246-.008c.158-.022.344.03.526.064.334.064.441.054.679.07.417.01.849-.033 1.281-.129 1.765-.373 2.947-1.662 3.476-2.722.556-1.067.605-1.87.753-1.86.104-.014.311.84-.148 2.127a5.385 5.385 0 01-1.296 1.99 5.412 5.412 0 01-2.58 1.378 5.65 5.65 0 01-1.523.132 5.83 5.83 0 01-.654-.076c-.091-.015-.081-.035-.098-.024-.011.01-.016.028-.015.054.037.123.103.24.197.345.189.214.463.373.73.507 1.094.538 1.869.697 1.849.838z" fill="#FF7B5B"/><path fill-rule="evenodd" clip-rule="evenodd" d="M443.841 88.684l9.941 3.93s-8.736 6.045-9.941-3.93z" fill="#fff"/><path fill-rule="evenodd" clip-rule="evenodd" d="M458.028 90.575c-.353.673-1.448.79-2.446.263-.999-.526-1.521-1.499-1.17-2.17.353-.674 1.449-.792 2.448-.265.998.527 1.521 1.499 1.168 2.172zm-11.095-5.902c-.302.697-1.384.9-2.419.45-1.035-.45-1.631-1.38-1.33-2.077.3-.698 1.384-.9 2.419-.45 1.035.45 1.631 1.38 1.33 2.077z" fill="#FFB2A0"/><path fill-rule="evenodd" clip-rule="evenodd" d="M443.25 99.623s3.485 2.929 7.121 1.986c0 0-1.254 1.886-6.079 1.193 0 0 .4-2.078-1.042-3.179z" fill="#FFA192"/><path fill-rule="evenodd" clip-rule="evenodd" d="M457.074 84.31a.79.79 0 01-.788.791.79.79 0 010-1.58.79.79 0 01.788.79zm-6.446-2.329a.79.79 0 01-.787.79.789.789 0 01-.787-.79c0-.436.352-.79.787-.79a.79.79 0 01.787.79z" fill="#22343D"/><path fill-rule="evenodd" clip-rule="evenodd" d="M459.605 82.206c-.244.103-.713-.468-1.425-.93-.697-.482-1.403-.699-1.402-.963-.023-.254.963-.46 1.921.185.959.64 1.149 1.631.906 1.708zm-11.36-3.835c-.016-.246.83-.557 1.963-.527 1.153.025 2.004.586 1.886.82-.109.237-.911.135-1.923.116-1.017-.03-1.91-.14-1.926-.409z" fill="#775298"/><path fill-rule="evenodd" clip-rule="evenodd" d="M451.795 321.663s4.135 14.727 8.405 13.521c4.27-1.204 1.059-21.758 1.059-21.758l-4.26-6.756s4.002 34.405-5.204 14.993zm52.146-81.648s3.007-3.292 6.652-3.84c3.647-.549 16.678-2.104 18.591-.367 1.915 1.738-10.562 7.563-10.562 7.563s4.348-2.78 2.543-3.813c-3.19-1.83-17.224.457-17.224.457zm-5.17 3.943l4.08 8.311 2.226-1.24-5.441-8.187-.865 1.116zm-45.621 56.191l-10.015 9.056 2.968 2.482 8.407-9.18-1.36-2.358zm-209.372-90.155c-2.848-7.092-3.942-14.987-8.192-21.332-6.116-9.131-17.862-13.662-22.824-23.473-2.108-4.167-2.769-8.934-2.791-13.606-.041-9.244 2.717-19.072 9.834-24.946 8.177-6.75 20.446-6.656 30.024-2.122 9.574 4.535 16.89 12.767 23.11 21.365 6.222 8.597 11.668 17.823 18.912 25.571 5.371 5.745 11.742 10.7 15.788 17.449 11.092 18.503-.32 41.915-19.902 48.593-17.205 5.866-38.006-12.674-43.959-27.499z" fill="#22343D"/><path fill-rule="evenodd" clip-rule="evenodd" d="M219.266 340.493c1.703 1.405-.154.432 2.323 2.051-.553 6.21-6.277 10.122-6.277 10.122s-.242 9.886-2.081 9.683c-1.843-.201-.663-9.52-.663-9.52s-3.769 9.738-5.363 9.118c-1.593-.618 4.176-11.791 4.176-11.791s-8.086 11.167-9.197 9.406c-1.109-1.759 6.006-12.535 6.006-12.535s-8.786 9.242-9.779 7.745c-.991-1.492 10.485-14.344 10.485-14.344-5.312-.059-4.935-3.686-4.935-3.686l12.937.77s1.585 2.333 2.368 2.981zM342.86 154.046c2.214.389.496-.347 3.369.492 4.718-4.301 4.091-11.058 4.091-11.058s7.913-6.367 6.601-7.611c-1.32-1.246-8.184 5.462-8.184 5.462s5.584-8.902 4.082-9.704c-1.499-.799-7.009 10.494-7.009 10.494s4.054-13.017 1.922-12.745c-2.127.274-6.471 12.319-6.471 12.319s2.042-12.331.205-12.136c-1.839.194-4.814 16.348-4.814 16.348-4.332-3.538-7.365-1.273-7.365-1.273l9.483 9.328s3.073-.094 4.09.084zm-54.161 53.99c4.002-.627 16.208 7.309 13.102 23.425-.26 1.353-2.021 4.332-2.46 5.564-.554 1.56 3.764 7.271 3.764 7.271l-11.146 3.573c-.476-3.378.324-8.315-3.278-9.783-1.347-.549-2.789-.896-4.06-1.593-3.432-1.88-5.264-5.994-6.674-9.361-1.053-2.517-1.854-5.223-1.824-7.954.073-6.876 6.143-10.134 12.576-11.142z" fill="#FFC6B2"/><path fill-rule="evenodd" clip-rule="evenodd" d="M311.019 252.173c0-5.8-1.833-8.015-7.901-8.015s-14.079 2.215-14.079 8.015c0 5.803 4.285 13.063 10.356 13.063 6.067 0 11.624-7.26 11.624-13.063z" fill="#FFC6B2"/><path fill-rule="evenodd" clip-rule="evenodd" d="M306.227 241.347s18.868-19.519 22.643-38.639c3.775-19.119 10.188-50.144 10.188-50.144l7.171 1.973s3.398 42.4 0 48.893c-3.395 6.494-22.644 51.588-22.266 63.131l-17.736-25.214zm-33.634 9.45s-6.415 1.082-16.228 23.45c-9.812 22.366-40.003 64.006-40.003 64.006l4.907 4.533s29.436-22.003 35.096-35.35c5.66-13.348 12.83-29.942 16.228-29.222 3.396.723 17.737-19.121 0-27.417z" fill="#FFC6B2"/><path fill-rule="evenodd" clip-rule="evenodd" d="M323.108 269.543l8.786-24.33s-1.356-11.411-18.696-15.501l-9.823 14.2 19.733 25.631zm-47.586-20.612s-10.365.876-18.766 19.39c0 0 9.239 12.798 15.999 13.23 0 0 25.104-21.53 2.767-32.62z" fill="#FF7B5B"/><path fill-rule="evenodd" clip-rule="evenodd" d="M304.002 468.488s-14.963 30.655-16.712 24.98c-1.746-5.678-1.169-19.313-.232-21.258.941-1.948 7.058-10.546 7.058-10.546l9.886 6.824z" fill="#FFC6B2"/><path fill-rule="evenodd" clip-rule="evenodd" d="M305.145 322.747l13.683-5.249s40.607 71.986 40.439 91.958c-.169 19.969-55.772 59.957-55.772 59.957l-9.379-7.749s26.355-38.879 35.532-48.968c4.589-5.046-28.264-29.772-33.24-53.564-4.976-23.791 8.737-36.385 8.737-36.385z" fill="#654287"/><path fill-rule="evenodd" clip-rule="evenodd" d="M222.876 452.429s-27.988 20.699-26.824 14.89c1.168-5.815 8.214-17.68 9.981-19.001 1.769-1.318 11.325-6.283 11.325-6.283l5.518 10.394z" fill="#FFC6B2"/><path fill-rule="evenodd" clip-rule="evenodd" d="M267.918 348.238l40.482-23.54s1.607 81.77-8.112 99.45c-9.717 17.68-78.306 28.881-78.306 28.881l-4.624-10.994s42.316-25.296 55.308-30.246c12.993-4.953-4.748-63.551-4.748-63.551z" fill="#775298"/><path fill-rule="evenodd" clip-rule="evenodd" d="M292.027 308.596s-29.807 10.589-24.109 39.642c5.698 29.052 15.195 34.498 15.195 34.498l17.094-28.142 17.163-36.856-17.163-2.184-8.18-6.958z" fill="#775298"/><path fill-rule="evenodd" clip-rule="evenodd" d="M306.227 241.347s21.946 12.34 21.946 40.223c0 0-2.788 31.789-7.307 38.735 0 0-7.344 1.8-16.502 0-9.602-1.886-18.894-8.657-18.894-8.657l-7.5-38.92-5.834-22.724 3.163-1.047 16.505-1.819s-2.371 24.737 16.058 12.453c3.882-2.587-4.832-15.486-4.832-15.486l3.197-2.758z" fill="#FF7B5B"/><path fill-rule="evenodd" clip-rule="evenodd" d="M319.66 135.979l46.012 26.931 25.883-49.052-43.137-24.046-28.758 46.167zm64.011 234.808l32.909-20.44-27.188-47.614-30.083 19.571 24.362 48.483z" fill="#fff"/><path fill-rule="evenodd" clip-rule="evenodd" d="M221.641 167.891c.086-.078 1.102.847 2.709 2.735 1.6 1.89 3.782 4.763 5.973 8.642 2.199 3.861 4.374 8.761 5.928 14.449 1.608 5.645 2.686 11.991 5.158 18.104 1.284 3.02 2.839 5.831 4.69 8.316a45.093 45.093 0 006.07 6.526c4.357 3.679 8.922 6.209 12.989 7.671 4.064 1.483 7.545 2.148 9.965 2.386 2.417.269 3.784.308 3.785.468.007.099-1.356.308-3.838.26-2.481-.019-6.093-.495-10.346-1.863-4.257-1.349-9.066-3.845-13.664-7.605a44.91 44.91 0 01-6.423-6.741c-1.958-2.586-3.612-5.543-4.955-8.708-2.575-6.39-3.593-12.791-5.091-18.362a67.263 67.263 0 00-5.428-14.269c-1.998-3.881-3.981-6.823-5.386-8.829-1.414-2.001-2.242-3.086-2.136-3.18zm56.531-31.508c.338-.052.667 4.493 3.201 11.215a50.569 50.569 0 005.852 11.062c1.351 1.933 2.906 3.838 4.666 5.736 1.748 1.907 3.652 3.843 5.452 6.015 3.608 4.384 6.091 9.121 8.428 13.303 2.321 4.223 4.17 8.24 5.109 11.833.981 3.583 1.038 6.667.727 8.712-.325 2.055-.834 3.096-.918 3.067-.162-.042.102-1.142.194-3.133.08-1.988-.172-4.885-1.268-8.271-1.06-3.4-2.965-7.231-5.343-11.364-2.415-4.132-4.919-8.774-8.366-12.952-1.73-2.09-3.607-4.02-5.366-5.974-1.768-1.944-3.376-3.969-4.733-5.995-2.722-4.057-4.539-8.1-5.677-11.595a41.974 41.974 0 01-1.894-8.474c-.233-2.036-.17-3.175-.064-3.185z" fill="#22343D"/><path fill-rule="evenodd" clip-rule="evenodd" d="M292.278 225.553c-.018-.13.732-.25 1.44-1.084.163-.192.327-.473.324-.637a1.01 1.01 0 00-.337-.656.949.949 0 00-.782-.259c-.331.024-.735.189-1.262.268-1.154.154-2.054-.5-2.646-1.03a9.439 9.439 0 01-1.42-1.63c-.69-1.02-.904-1.758-.798-1.812.122-.065.538.545 1.316 1.401.388.425.878.913 1.457 1.383.57.456 1.268.872 1.965.762.37-.048.8-.221 1.324-.257.534-.053 1.128.194 1.453.562.347.376.541.819.5 1.343-.103.537-.387.788-.622 1.022-1.014.891-1.945.746-1.912.624z" fill="#FF7B5B"/><path fill-rule="evenodd" clip-rule="evenodd" d="M297.716 226.321l-8.837 3.224s7.498 6.582 8.837-3.224z" fill="#fff"/><path fill-rule="evenodd" clip-rule="evenodd" d="M287.997 225.772c.353.674-.17 1.646-1.168 2.172-.998.528-2.093.411-2.446-.263-.353-.671.17-1.644 1.168-2.172.998-.527 2.093-.41 2.446.263zm10.476-5.39c.289.703-.322 1.622-1.363 2.054-1.044.433-2.123.214-2.412-.489-.29-.703.321-1.622 1.364-2.054 1.042-.432 2.122-.214 2.411.489z" fill="#FFB2A0"/><path fill-rule="evenodd" clip-rule="evenodd" d="M289.14 238.322s2.957.604 6.725-.341c0 0-1.857 1.811-4.893 2.232 0 0-.68-1.261-1.832-1.891z" fill="#FFA192"/><path fill-rule="evenodd" clip-rule="evenodd" d="M292.161 218.392c.331.282.372.78.091 1.113a.787.787 0 01-1.11.091.792.792 0 01-.091-1.113.787.787 0 011.11-.091zm-5.939 3.428c.332.282.372.78.091 1.113a.785.785 0 01-1.109.091.791.791 0 01-.091-1.113.784.784 0 011.109-.091zm5.974-6.727c-.079.254-.816.244-1.627.491-.818.221-1.438.621-1.639.448-.208-.144.273-1.033 1.382-1.349 1.107-.32 1.983.176 1.884.41zm-10.259 6.217c-.198-.147.113-.995.868-1.842.763-.867 1.741-1.156 1.843-.915.11.236-.486.785-1.156 1.547-.679.759-1.34 1.372-1.555 1.21z" fill="#22343D"/><path fill-rule="evenodd" clip-rule="evenodd" d="M278.604 227.893s-2.834-2.388-4.195-.227c-1.36 2.161 6.122 3.299 6.122 3.299l-1.927-3.072z" fill="#FFC6B2"/><path fill-rule="evenodd" clip-rule="evenodd" d="M210.452 445.703s-4.064 1.772-5.123 2.837c-1.061 1.063-10.778 17.902-9.541 20.029 1.238 2.127 10.982-5.093 10.982-5.093s-8.154 1.549 3.682-17.773zm79.293 22.267s-2.886 3.13-3.332 4.568c-.445 1.435-1.242 20.877.84 22.182 2.08 1.307 7.768-9.421 7.768-9.421s-6.8 5.344-5.276-17.284" fill="#775298"/></svg>